<svg id="Слой_1" data-name="Слой 1" xmlns="http://www.w3.org/2000/svg" viewBox="0 0 99.21 99.21"><defs><style>.cls-1{fill:#365182;}.cls-2{fill:#e3e1e0;}.cls-3{fill:#f67577;}.cls-4{fill:#fcfcfc;}.cls-5{fill:#e3e1e1;}.cls-6{fill:#f07b74;}.cls-7{fill:#848484;}.cls-8{fill:#cb5f59;}</style></defs><rect class="cls-1" width="99.21" height="99.21"/><polygon class="cls-2" points="23.14 63.55 35.87 89.47 39.41 91.97 44.27 93.35 51.19 93.01 58.55 91.49 62.87 90.83 67.16 79.04 68.47 57.16 24.31 59.38 23.14 63.55"/><polygon class="cls-3" points="33.26 14.75 29.95 20.77 29.4 21.93 28.92 24.59 31.03 24.14 34.21 23.71 40.3 22.74 44.11 22.3 48.01 21.83 53.11 21.85 57.56 21.98 62.39 22.48 62.28 20.57 61.39 18.64 59.32 13.73 54.67 11.19 45.19 11.7 33.26 14.75"/><path class="cls-4" d="M26.1,52.8A39.37,39.37,0,0,1,15,41.81,13.59,13.59,0,0,0,17,41.59C22.12,40.21,26,37,29.5,33.08c1.41-1.58,2.73-3.24,4.21-4.76,3.63-3.75,6.64-3.14,8.73,1.7.09.21.17.43.26.65,1.64,4.42,1.71,9.13,2.5,13.7a13.18,13.18,0,0,0-1.69.49c-.54.24-1.66.14-1.06,1.29A4.76,4.76,0,0,0,45,48.7a3,3,0,0,0,3.34-1c.71-.78,1.72-1.79,1.32-2.72s-1.89-.57-2.91-.72l-.17,0A19.33,19.33,0,0,1,47,39.49c.5-4,1-8.08,2.95-11.75,1.46-2.76,3.29-3.14,5.68-1.15,1.95,1.61,3.8,3.35,5.73,5A26.57,26.57,0,0,0,76,37.89c1,.52.49,1.07.07,1.66a48.25,48.25,0,0,1-9.55,9.86l-4.08,3c-1.56.93-3.4,1.39-4.64,2.83a.33.33,0,0,0-.26.07c-1-.53-1.92-.83-2.87,0a1.44,1.44,0,0,1-1.29.36c-1.34-.27-1.76.48-1.88,1.61-.39.1-.86,0-1.14.42A6.8,6.8,0,0,0,47,58.77c-.5-.46-1.11-.21-1.68-.24a33.25,33.25,0,0,1-4.9-.2A39.46,39.46,0,0,1,26.1,52.8ZM49.7,41.57c.13,1,.22,2.06,1.44,2.09s1.52-1.1,1.54-2.13-.28-2.06-1.41-2.1C50,39.39,49.81,40.55,49.7,41.57Zm-9,.38c-.12-.92-.23-2-1.37-2S38,41.07,38,42s.09,2,1.24,2S40.53,42.86,40.66,42Z" transform="translate(0 -0.13)"/><path class="cls-2" d="M23.14,63.68c-.05-.48,9.66-1.17,10.35-1.48,1.16.89,3.09,4.71,4.56,5.28,1,.4,2.09,1,1.85-1a10.39,10.39,0,0,1,.22-2.27l8.17,0c-1.83.68-3.73.22-5.59.36-.34,0-.85,0-1,.2-.22.35,0,.8.3,1.11a9.67,9.67,0,0,0,3.42,2.72c1.87.72,5-1.44,4.93-3.46a1.14,1.14,0,0,0-.8-1,.57.57,0,0,1,.08-.25h1.43c-.2,4.18-.4,8.36-.57,12.54,0,.44-.23,1,.3,1.28s.72-.31,1.06-.5c.95-.54,1.74-1.48,3-1.21.91,4.21,2.17,8.34,2.54,12.65.24,2.76-1.24,4.24-4.56,4.6-2.67.29-3.52-.49-3.84-3.53A99.72,99.72,0,0,1,48.82,76c0-.6.33-1.28-.37-1.91-.71,2.53-.08,5.12-1.07,7.57l-1.24-7.11c-.5,1.87,0,3.63.21,5.4a67.9,67.9,0,0,1,.8,10.75c0,1,0,2.17-1.08,2.84-2.61,1.61-12.41-3.84-15.13-7.37S23.14,63.68,23.14,63.68Z" transform="translate(0 -0.13)"/><path class="cls-2" d="M27,83.63" transform="translate(0 -0.13)"/><path class="cls-5" d="M45.2,44.37c-.79-4.57-.86-9.28-2.5-13.7-.09-.22-.17-.44-.26-.65-2.09-4.84-5.1-5.45-8.73-1.7-1.48,1.52-2.8,3.18-4.21,4.76C26,37,22.12,40.21,17,41.59a13.59,13.59,0,0,1-1.92.22c-.81-.58-.77-1.08-.11-1.84,1-1.11,1.7-2.4,2.62-3.55a1.18,1.18,0,0,0-.07-1.8c-5.39-6.2-6.21-13.32-4.25-21a3,3,0,0,1,2.53-2.49c4.06-1,7.82,0,11.49,1.62a22.33,22.33,0,0,1,4.82,2.91,5.78,5.78,0,0,1-1.25,2.57,14.46,14.46,0,0,0-11-4.68c-3.4,0-3.62.21-4.08,3.56,0,.29-.13.57-.16.87a21.38,21.38,0,0,0,4.2,15.27c.76,1,1.51,1.45,2.48.16,2.2-2.91,4.46-5.77,6.69-8.65A5.1,5.1,0,0,0,31,24.26l1-.13,10.39-1.57A27.33,27.33,0,0,0,48,22c.58,0,1.16,0,1.74,0a76.27,76.27,0,0,1,12.64.62c2.44,2.48,4.88,4.95,7.3,7.45.93,1,1.54.81,2.1-.37A29.61,29.61,0,0,0,74,23.38a21.8,21.8,0,0,0,.1-11c-.26-.92-.66-1.87-1.89-1.73a21.39,21.39,0,0,0-12,4.68l-.56-.48c-.11-.89-.8-1.46-1.18-2.21A22.25,22.25,0,0,1,68.54,8a13,13,0,0,1,1.4-.17c4.24-.25,5.09.34,6.24,4.37,2,6.94,1.47,13.53-2.69,19.61a1.52,1.52,0,0,0,0,2c.92,1.29,1.72,2.67,2.56,4a26.57,26.57,0,0,1-14.7-6.32c-1.93-1.63-3.78-3.37-5.73-5-2.39-2-4.22-1.61-5.68,1.15C48,31.41,47.46,35.45,47,39.49a19.33,19.33,0,0,0-.36,4.74Z" transform="translate(0 -0.13)"/><path class="cls-5" d="M85.82,62.2C84.55,68.54,82.75,77.1,81,83.32A8,8,0,0,1,75.71,89a36.34,36.34,0,0,1-13.88,1.94,3.27,3.27,0,0,1,.67-.57,19.13,19.13,0,0,0,9-8.62c3.42-6.19,4.55-12.67,1.94-19.49.73-1.54,4.41-5.18,5.68-6.28" transform="translate(0 -0.13)"/><path class="cls-2" d="M69.06,56.46m.51,0c.1-.17,3.78,6,3.88,5.8,2.61,6.82,1.48,13.3-1.94,19.49a19.13,19.13,0,0,1-9,8.62,3.27,3.27,0,0,0-.67.57l-1.76,0-1.8-.59a59.15,59.15,0,0,0-2.54-13.84c.66-.3,1.09.26,1.63.43a4.22,4.22,0,0,0,4.15-.76c.93-.82.1-2-.14-3-.57-2.39-1.24-4.77-1.62-7.2-.15-.94-1.22-2.39-.3-2.71" transform="translate(0 -0.13)"/><path class="cls-3" d="M29.23,24.72c-.36,0,1.09-3.82.72-3.82l.87-2.71a5.78,5.78,0,0,0,1.25-2.57c2.21-2.34,4.32-4.79,7.35-6.17,5.9-2.69,13.86-3.3,19.12,3.22.38.75,1.07,1.32,1.18,2.21,1.73,1.24.79,1.12,1.13,1.91.79,1.88,1,2.19-.57,2.19-.34,0-1.43-.31-1.71-.11a6.55,6.55,0,0,1-3.46,0c-.38-.31-.6-.16-.73.26l-6.67.09H44.16l-.77.33c-1.29.13-2.92-.64-3.53,1.71A1.61,1.61,0,0,0,37.75,20" transform="translate(0 -0.13)"/><path class="cls-6" d="M48.35,64.15l-8.16,0a64,64,0,0,1-12-2.8C27,61,25.94,59.66,24.38,60.13a18.61,18.61,0,0,1-.05-4.22A4.37,4.37,0,0,1,26.1,52.8a39.46,39.46,0,0,0,14.32,5.53,33.25,33.25,0,0,0,4.9.2c.57,0,1.18-.22,1.68.24-.73,1.47.86,4.58,2.51,4.91a1.06,1.06,0,0,1,.21.11.49.49,0,0,0-.08.24Zm-6.41-5a7.54,7.54,0,0,1,1.54,3.24,1.38,1.38,0,0,0,1.29,1.24c.41,0,.58-.29.7-.66C46,61.18,43.84,58.77,41.94,59.14Z" transform="translate(0 -0.13)"/><path class="cls-4" d="M85.46,64.47c-1.06-.72-1.17-2-1.64-3-.56-1.22-1.11-1.12-2-.45a17.29,17.29,0,0,1-3.46,2.6A6.33,6.33,0,0,1,79,60.69c.61-2,.53-2.15-1.65-2.23l-.7,0c2.67-3.3,6.32-5,10.25-6.22,1.08-.35,1.15,0,1,1a97,97,0,0,1-2.21,9.69A7.31,7.31,0,0,0,85.46,64.47Z" transform="translate(0 -0.13)"/><path class="cls-7" d="M49.24,93.61c-1.09-.08-1.27-1.33-1.42-2.27-.17-1.09-.28-2.19-.42-3.29a4.82,4.82,0,0,0-.33-2.5A3.36,3.36,0,0,0,47.26,88c0,.74-.1,1.49-.13,2.23-.05,1.51-.92,4.07-1.92,4.2s-4-.77-5.22-1.19-2.27-.5-3-1.73,0-3.75.26-6.24A69.87,69.87,0,0,1,39,75.66l.43.06c-.27,1.69-.56,3.38-.81,5.08a50.42,50.42,0,0,0-1,8.92c.1,3,6.32,3.71,7.41,3.57.76-.1,1.26-.69,1.36-2.4a56.24,56.24,0,0,0-.8-10.75c-.24-1.77-.72-3.52-.21-5.39l1.24,7.11c1-2.45.35-5,1.07-7.58.69.64.38,1.31.37,1.91a99.84,99.84,0,0,0,.21,13.62c.33,3,1.46,2.77,4.12,2.48,3.33-.36,4.52-.79,4.29-3.55-.37-4.31-1.63-8.45-2.55-12.65.41,0,.55.36.78.6a59.15,59.15,0,0,1,2.54,13.84A2.54,2.54,0,0,1,57.09,92c-2.42,1.51-1,1-3.43,1.59A25.41,25.41,0,0,1,49.24,93.61Z" transform="translate(0 -0.13)"/><path class="cls-4" d="M24.38,60.21c1.56-.48,2.58.83,3.84,1.27a64,64,0,0,0,12,2.79A9.8,9.8,0,0,0,40,66.53c.24,2-.83,1.42-1.85,1-1.47-.57-1.93-2.16-3.09-3-.69.31-.44.91-.48,1.38-.16,1.84-.52,2-2.17,1.1a9.37,9.37,0,0,1-4-4.07c-.47-1-.92-1-1.71-.45-1,.63-2,1.16-3.06,1.73-.13,0-.31-.44-.43-.44C23.12,62.3,24.09,61.57,24.38,60.21Z" transform="translate(0 -0.13)"/><path class="cls-6" d="M62.46,52.37l4.08-3a11.49,11.49,0,0,1,3,8.44,5.37,5.37,0,0,1-2.45.54c0-2-2.25-5.23-4.05-5.9a1.5,1.5,0,0,0-.52,0Z" transform="translate(0 -0.13)"/><path class="cls-7" d="M45.2,44.37l1.4-.14.17,0c1,.15,2.47-.29,2.91.72s-.61,1.94-1.32,2.72a3,3,0,0,1-3.34,1,4.76,4.76,0,0,1-2.57-2.55c-.6-1.15.52-1,1.06-1.29A13.18,13.18,0,0,1,45.2,44.37Z" transform="translate(0 -0.13)"/><path class="cls-6" d="M57.82,55.2c1.24-1.44,3.08-1.9,4.64-2.83l.09.11c-1.35,2-1.25,1.87.69,3.58a5.28,5.28,0,0,1,2.11,3.44,8.88,8.88,0,0,1-2.48,1c.08-2.71-2.35-3.82-3.64-5.66,0,0-.44.28-.68.44Z" transform="translate(0 -0.13)"/><path class="cls-6" d="M51.53,57.29c.11-1.13.53-1.88,1.87-1.61a1.44,1.44,0,0,0,1.29-.36c1-.88,1.9-.58,2.87,0,.09.94.19,1.89.29,2.84l-6.29-.35Z" transform="translate(0 -0.13)"/><path class="cls-8" d="M57.85,58.11c-.1-1-.2-1.9-.29-2.84a.33.33,0,0,1,.26-.07l.73.12a18.35,18.35,0,0,0,1,3.71c.74,2.6.74,2.6,3.31,1.51a8.88,8.88,0,0,0,2.48-1l.79,0a1.3,1.3,0,0,1,1,1.05c-2,1-4.32.45-6.33,1.38-1.39.65-2.13.19-2.24-1.32Z" transform="translate(0 -0.13)"/><path class="cls-3" d="M49.51,63.68c-1.65-.33-3.24-3.44-2.51-4.91a6.8,6.8,0,0,1,3.39-1.06C50.56,59.77,49.83,61.69,49.51,63.68Z" transform="translate(0 -0.13)"/><path class="cls-7" d="M49.7,41.57c.11-1,.28-2.18,1.57-2.14,1.13,0,1.42,1.11,1.41,2.1s-.2,2.16-1.54,2.13S49.83,42.53,49.7,41.57Z" transform="translate(0 -0.13)"/><path class="cls-7" d="M40.66,42c-.13.91-.14,2.06-1.43,2S38,42.85,38,42s.16-1.94,1.3-2S40.54,41,40.66,42Z" transform="translate(0 -0.13)"/><path class="cls-8" d="M49.51,63.68c.32-2,1.05-3.91.88-6,.27-.41.74-.32,1.13-.42,0,.15,0,.31,0,.47l-.12,3.49c-.42.8-.17,1.68-.29,2.52l-1.43,0A1.06,1.06,0,0,0,49.51,63.68Z" transform="translate(0 -0.13)"/><path class="cls-6" d="M51.15,63.77c.12-.84-.13-1.72.29-2.52,2.33-.82,4.86.52,7.15-.66.11,1.51.85,2,2.24,1.32,2-.93,4.34-.38,6.33-1.38.68.41,1.14,1.19,2,1.23a6.92,6.92,0,0,0,2.49,2.13l.72.31a2.44,2.44,0,0,1-1.89,3.73c-2.59.46-4.51,1.53-5.53,4.41a74.28,74.28,0,0,1-3.9-6.68c-.52-.87-.78-2.66-1.64-2.37s.15,1.77.3,2.71c.38,2.43,1,4.81,1.62,7.2.24,1,1.07,2.14.14,3a4.22,4.22,0,0,1-4.15.76c-.54-.17-1-.73-1.63-.43-.23-.25-.36-.6-.77-.6-1.28-.28-2.06.67-3,1.2-.34.19-.65.68-1.06.5s-.32-.84-.3-1.27C50.75,72.13,51,68,51.15,63.77Zm0,7.2c-.17,1.08.25,1.46,1.58,1.37a15.51,15.51,0,0,1,5.6.2c.7.21,1.25.28,1.7-.38.72-1.06,0-1.9-.42-2.78s-.95-.42-1.51-.25A6.1,6.1,0,0,1,53.85,69C52.23,68.32,51.24,69,51.19,71Zm3.7-5.06c-.7,0-1.23,0-1.75,0s-1,0-1.06.65.53.69,1,.72a5.89,5.89,0,0,0,1.57,0c.92-.2,2.6.65,2.6-.74C57.26,65.34,55.59,66.18,54.89,65.91Z" transform="translate(0 -0.13)"/><path class="cls-4" d="M48.35,64.15,49.64,64a1.14,1.14,0,0,1,.8,1c0,2-3.06,4.18-4.93,3.46a9.59,9.59,0,0,1-3.42-2.73c-.29-.3-.52-.76-.3-1.11.12-.19.63-.17,1-.19C44.62,64.37,46.53,64.82,48.35,64.15Z" transform="translate(0 -0.13)"/><path class="cls-4" d="M30.82,18.19,30,20.9c-.8,1.15-.8,2.51-1,3.82-2.23,2.88-4.49,5.74-6.69,8.65-1,1.29-1.72.83-2.48-.16a21.38,21.38,0,0,1-4.2-15.27c0-.3.12-.58.16-.87.46-3.35.68-3.56,4.08-3.56A14.46,14.46,0,0,1,30.82,18.19Z" transform="translate(0 -0.13)"/><path class="cls-4" d="M60.28,15.36a21.39,21.39,0,0,1,12-4.68c1.23-.14,1.63.81,1.89,1.73a21.8,21.8,0,0,1-.1,11,29.61,29.61,0,0,1-2.23,6.31c-.56,1.18-1.17,1.34-2.1.37-2.42-2.5-4.86-5-7.3-7.45a5.43,5.43,0,0,0-1-3.84C61.4,17.51,60.59,16.52,60.28,15.36Z" transform="translate(0 -0.13)"/><path class="cls-8" d="M61.39,18.77a5.43,5.43,0,0,1,1,3.84A76.27,76.27,0,0,0,49.75,22c-.58,0-1.16,0-1.74,0-.1-.93-.2-1.85-.29-2.77l6.66-.09c.41.39.59.12.73-.26a6.55,6.55,0,0,0,3.46,0c.12.42.06,1,.85.56A10.86,10.86,0,0,1,61.39,18.77Z" transform="translate(0 -0.13)"/><path class="cls-8" d="M31.78,20.6c2,.41,4-.27,6-.64a1.61,1.61,0,0,1,2.11,1.27c.61-2.35,2.24-1.58,3.53-1.71-.34,1,.91,2.55-1,3L32,24.13C31.08,23,32,21.77,31.78,20.6Z" transform="translate(0 -0.13)"/><path class="cls-8" d="M28.92,24.72c.23-1.31.23-2.67,1-3.82H31c0,1.12,0,2.23,0,3.35A5.1,5.1,0,0,1,28.92,24.72Z" transform="translate(0 -0.13)"/><path class="cls-6" d="M42.38,22.56c1.92-.49.67-2,1-3l.76-.33c-.16,2.65.13,3.07,2,2.79s.9-1.8,1.11-2.79h.48L48,22A27.33,27.33,0,0,1,42.38,22.56Z" transform="translate(0 -0.13)"/><path class="cls-6" d="M31,24.26c0-1.12,0-2.23,0-3.35l.74-.31c.2,1.17-.7,2.41.21,3.53Z" transform="translate(0 -0.13)"/><path class="cls-8" d="M47.23,19.19c-.21,1,.83,2.5-1.11,2.79s-2.13-.14-2-2.79Z" transform="translate(0 -0.13)"/><path class="cls-6" d="M55.11,18.84c-.14.38-.32.65-.73.26C54.51,18.68,54.73,18.53,55.11,18.84Z" transform="translate(0 -0.13)"/><path class="cls-3" d="M41.94,59.14c1.9-.37,4.08,2,3.53,3.82-.12.37-.29.7-.7.66a1.38,1.38,0,0,1-1.29-1.24A7.54,7.54,0,0,0,41.94,59.14Z" transform="translate(0 -0.13)"/><path class="cls-2" d="M47.82,85.39" transform="translate(0 -0.13)"/><path class="cls-2" d="M48.15,87.89" transform="translate(0 -0.13)"/><path class="cls-3" d="M66.14,59.48l-.79,0a5.28,5.28,0,0,0-2.11-3.44c-1.94-1.71-2-1.6-.69-3.58a1.5,1.5,0,0,1,.52,0c1.8.67,4,3.91,4.05,5.9C66.87,58.83,66.08,58.77,66.14,59.48Z" transform="translate(0 -0.13)"/><path class="cls-3" d="M62.87,60.54C60.3,61.63,60.3,61.63,59.56,59a18.35,18.35,0,0,1-1-3.71c.24-.16.68-.45.68-.44C60.52,56.72,63,57.83,62.87,60.54Z" transform="translate(0 -0.13)"/><path class="cls-3" d="M58.59,60.59c-2.29,1.18-4.82-.16-7.15.66l.12-3.49,6.29.35C58.09,58.93,58.34,59.76,58.59,60.59Z" transform="translate(0 -0.13)"/><path class="cls-3" d="M51.19,71c.05-1.93,1-2.65,2.66-2a6.1,6.1,0,0,0,4.29.12c.56-.17,1.14-.54,1.51.25s1.14,1.72.42,2.78c-.45.66-1,.59-1.7.38a15.51,15.51,0,0,0-5.6-.2C51.44,72.43,51,72.05,51.19,71Z" transform="translate(0 -0.13)"/><path class="cls-3" d="M54.89,65.91c.7.27,2.37-.57,2.36.64,0,1.39-1.68.54-2.6.74a5.89,5.89,0,0,1-1.57,0c-.47,0-1-.07-1-.72s.59-.63,1.06-.65S54.19,65.91,54.89,65.91Z" transform="translate(0 -0.13)"/></svg>