<?xml version="1.0" encoding="utf-8"?><!-- Uploaded to: SVG Repo, www.svgrepo.com, Generator: SVG Repo Mixer Tools -->
<svg width="800px" height="800px" viewBox="0 0 24 24" fill="none" xmlns="http://www.w3.org/2000/svg">
<path d="M18 6L17 7M17 7L16 8M17 7L16 6M17 7L18 8M12.5 5H6C5.5286 5 5.29289 5 5.14645 5.14645C5 5.29289 5 5.5286 5 6V7.96482C5 8.2268 5 8.35779 5.05916 8.46834C5.11833 8.57888 5.22732 8.65154 5.4453 8.79687L8.4688 10.8125C9.34073 11.3938 9.7767 11.6845 10.0133 12.1267C10.25 12.5688 10.25 13.0928 10.25 14.1407V19L13.75 17.25V14.1407C13.75 13.0928 13.75 12.5688 13.9867 12.1267C14.1205 11.8765 14.3182 11.6748 14.6226 11.4415M20 7C20 8.65685 18.6569 10 17 10C15.3431 10 14 8.65685 14 7C14 5.34315 15.3431 4 17 4C18.6569 4 20 5.34315 20 7Z" stroke="#464455" stroke-linecap="round" stroke-linejoin="round"/>
</svg>