<svg id="атмосферка" xmlns="http://www.w3.org/2000/svg" viewBox="0 0 560.98 577.09"><defs><style>.cls-1{fill:#ec7f46;}.cls-2{fill:#7d4580;}.cls-3{fill:#d83623;}.cls-4{fill:#e97b1e;}.cls-5{fill:#c9e4d0;}.cls-6{fill:#54969f;}.cls-7{fill:#92c028;}.cls-8{fill:#f6c21d;}.cls-9{fill:#c0c0bf;}</style></defs><g id="цвета"><path class="cls-1" d="M362.76,361.78l9.13,1.58a.82.82,0,0,0,.89-.49c.72-1.8-.89-3.27-2.06-3.9-3.06-1.65-5.61-.1-8.17,2A.44.44,0,0,0,362.76,361.78Z" transform="translate(-159.45 -11.99)"/><path class="cls-1" d="M318.09,231.38c4-2.1,7.93-4.25,11.94-6.3,2.47-1.26,2.83-1.66,1.76-4.55-.15-.41-4.94-7.94-7.32-11.18-1.79-2.43-8.07-11-14.74-11-2.68,0-6.23.33-7.67,4.13a11.59,11.59,0,0,0,.66,9.89c1,1.82,2.75,5.09,3.82,6.87a92,92,0,0,0,6.72,10.08C314.26,230.65,316.43,232.25,318.09,231.38Z" transform="translate(-159.45 -11.99)"/><path class="cls-2" d="M384.71,251.3c-4.81-5.4-7.86-12-14.21-16.61a1.19,1.19,0,0,1-1.57,0c-.7-.57-1.35-1.12-2-1.67-4.14-3.54-8.07-6.65-14.1-7.36-9.09-1.06-19.29.79-24.34,3.11a60.23,60.23,0,0,0-18.57,13.08c-1.29,1.36-4.1,3.65-5.53,5.69s-1.35,2.58-.09,3.92a62.1,62.1,0,0,0,5.21,5.53,16.93,16.93,0,0,0,13,3.6c6.15-1,8.94-2.69,15.08-3.77,4.57-.8,12.47-1.21,17.08-1.65a4.1,4.1,0,0,1,1.84.36.77.77,0,0,1,.4,1.11,110.58,110.58,0,0,1,20.57,1.51A24.13,24.13,0,0,1,384.71,251.3Z" transform="translate(-159.45 -11.99)"/><path class="cls-3" d="M405.16,231.12a1.2,1.2,0,0,1-1-.94.65.65,0,0,1,0-.19c.08-2.56.53-5.11.74-7.67.4-4.82,1.42-9.74-.5-14.41-2.78-6.74-8.22-11-14.67-13.68-6.16-2.51-12.29-5.09-19.15-5.82a11.55,11.55,0,0,0-6.34,1.56c-3.56,2-6.34,5.62-8.39,9.1-2.15,3.65-8.38,13.44-6.8,19.91a4.42,4.42,0,0,0,3.48,3.18,29.76,29.76,0,0,1,18.26,11.12,1.08,1.08,0,0,1-.28,1.41c6.35,4.62,9.4,11.21,14.21,16.61a19.35,19.35,0,0,1,5-2.17,67.8,67.8,0,0,1,12.63-1c.24,0,.47.08.7.12C403.38,242.31,405.57,237,405.16,231.12Z" transform="translate(-159.45 -11.99)"/><path class="cls-4" d="M435.65,243.9h0c-2.69-.13,2.18-4.83,5.3-7.06,6.44-4.6,11.48-5.12,19-6.59,4.11-.8,9.61-1.3,11.12-6.36,1.76-5.92,1.53-14.67.15-20.94-1.12-5.07-1.14-5.76-6.31-5.83a97.51,97.51,0,0,0-16.88,1c-3.95.51-13.45,3.36-16.93,5.27-5.58,3.07-9.7,5.13-14.62,9.16a28.21,28.21,0,0,0-9.06,15.3c-.15.75-.34,1.5-.53,2.24a1.46,1.46,0,0,1-1.7,1c.41,5.91-1.78,11.19-2.11,17.1,5.16.94,7.52,4.21,10.05,8.61a9.85,9.85,0,0,1,1,2.48C420,252.32,428.21,248.51,435.65,243.9Z" transform="translate(-159.45 -11.99)"/><path class="cls-5" d="M363,279.31c-1.33,1.22-4.79,2.1-6.41,3.3a40.37,40.37,0,0,0-6.18,5.65,81.94,81.94,0,0,0-8.86,11.18c-2,3.13-3.47,7.78-4.15,9.59-1.61,4.34-2.13,6.45-1.9,10.54a70.07,70.07,0,0,0,2.33,15.29c1.34,4.43,3.14,8.9,4.81,13.27,2.56,6.66,2.83,6.75,9.22,4.05,5.69-2.41,11.6-4.26,16.91-7.71,5.82-3.78,7.75-9.88,9.62-15.57,2-6.16,2-13,3.09-19.46a3.61,3.61,0,0,1,.38-1.07,1,1,0,0,1,1.53-.34c.72-4,1-8.26,1.75-12.47a26.32,26.32,0,0,1-3.55-.69,25.94,25.94,0,0,1-11.37-6.28,16.24,16.24,0,0,1-4.72-10.53,1.62,1.62,0,0,0,0-.22,21.83,21.83,0,0,0-2.12,1A2.19,2.19,0,0,1,363,279.31Z" transform="translate(-159.45 -11.99)"/><path class="cls-5" d="M368.7,280.41c1.1,4.65,8.83,10.06,13.26,11.17a26.47,26.47,0,0,0,3.84.62,25.37,25.37,0,0,1,4.43-9.55,13.86,13.86,0,0,1-7.83-2.54,15.1,15.1,0,0,1-4.46-4.92,59.25,59.25,0,0,0-9.69,1.66A20.65,20.65,0,0,0,368.7,280.41Z" transform="translate(-159.45 -11.99)"/><path class="cls-6" d="M368,261.1a1,1,0,0,1,1.64-.14l.44.57c.43.54-1,2.76-1.38,5.57a58.68,58.68,0,0,0-.44,9.75,59.25,59.25,0,0,1,9.69-1.66,21.85,21.85,0,0,1-2.3-7.53,10.37,10.37,0,0,1-.06-2.49c.16-1.76.57-4.84,1.51-6.35.11-.18.25-.39.41-.63a110.58,110.58,0,0,0-20.57-1.51.73.73,0,0,1-.52.39c-5.65,1.07-10.82,1.51-15.86,2.55-4.51.93-8.95,2.44-12.62,5.45a33.72,33.72,0,0,0-11.86,19.32c-1.22,5.62-2.63,11.07-3.34,16.78-.56,4.59,0,10.15.18,14.25.06,1.4,3.7.4,5.33.16,4.18-.61,7.56-1.24,11.73-2,.67-.11,1.4-1.18,1.68-1.91,7.26-18.92,18.09-29.33,25.63-32.71,1.59-.71,7.06-1.67,6-.12a21.83,21.83,0,0,1,2.12-1C365.3,273.29,366,265.33,368,261.1Z" transform="translate(-159.45 -11.99)"/><path class="cls-7" d="M408.18,288.81c-10,6.57-17.64,7.42-23.09,6.75-.74,4.21-1,8.5-1.75,12.47a1,1,0,0,1,.37.66c.4,3.47.41,6.77.88,10,.88,6.06,1.49,11,5,15.68,3.4,4.53,6.77,8.8,12.08,11.55,6.49,3.38,12.8,1.71,19-.51a114.77,114.77,0,0,0,15.36-6.5c4.16-2.2,8.46-4.3,12.21-7.1a10.46,10.46,0,0,0,3.85-6.51,44.74,44.74,0,0,0-.43-13.71c-1.19-5.75-6.77-11.16-10.75-14.23-3.76-2.89-14-8.79-17.42-11.43a40.34,40.34,0,0,1-6.51-4.81A46,46,0,0,1,408.18,288.81Z" transform="translate(-159.45 -11.99)"/><path class="cls-8" d="M483.19,250.1c-1.24-3.26-10.8-8.42-14.23-9.22-6.1-1.42-12.41-2.89-18.75-1.59-3.57.74-7,2.19-10.49,3.33-1.41.46-2.34,1.36-4.07,1.28-7.44,4.61-15.68,8.42-21.55,15.41,1.23,4.77-1.8,9.11-4.33,12.94a19.2,19.2,0,0,1-1.86,2.41,27.71,27.71,0,0,1,6.24,4c.05-.06.11-.12.16-.19,3.58-4.4,6.36-9.39,9.62-14a2.38,2.38,0,0,1,2-.87c.59.17-.58,3.64-1.65,6a38.73,38.73,0,0,1-5.08,8.9c-.7.89-1.44,1.75-2.2,2.6a40.34,40.34,0,0,0,6.51,4.81,3.75,3.75,0,0,1-1.09-1.08c-.87-2.47,9,1.89,12.57,3.38,4.37,1.81,11,4.88,15.33,7.15,6.39,3.37,8.33,6.32,15.2,7.78,8.54,1.82,13.32-7,17.11-14.14a37.2,37.2,0,0,0,2.6-6.5C488.16,271.62,487.66,261.91,483.19,250.1Z" transform="translate(-159.45 -11.99)"/><path class="cls-7" d="M402.73,279.1a17.67,17.67,0,0,1-10.49,3.58c-.68,0-1.35,0-2,0a25.37,25.37,0,0,0-4.43,9.55,27.93,27.93,0,0,0,15.11-3,38.69,38.69,0,0,0,13.24-10.5,27.71,27.71,0,0,0-6.24-4A30.07,30.07,0,0,1,402.73,279.1Z" transform="translate(-159.45 -11.99)"/><path class="cls-1" d="M503.36,249a14.75,14.75,0,0,0,2.75,1.1,1.28,1.28,0,0,0,1.66-1.48c-.33-1.22-1.58-2-2.54-2.84a2.78,2.78,0,0,0-2.21-.67,2.16,2.16,0,0,0-1.23,1.74A3.5,3.5,0,0,0,503.36,249Z" transform="translate(-159.45 -11.99)"/><path class="cls-1" d="M488.47,317.21l3.88-1.6a.92.92,0,0,0,.2-1.6,17.46,17.46,0,0,0-4.14-2.65c-.57-.22-2.42,1.36-2.7,2.38a4.43,4.43,0,0,0,.15,2.17A1.93,1.93,0,0,0,488.47,317.21Z" transform="translate(-159.45 -11.99)"/><path class="cls-1" d="M502.67,274.63c.65.18,3.55.21,3.9-.26.91-1.18,3.28-6.09-.92-8.49-.93-.53-3.08,0-3.92.83C499.71,268.71,499.91,273.88,502.67,274.63Z" transform="translate(-159.45 -11.99)"/><path class="cls-1" d="M458.7,351.44c2.06-.81,4.31-4.83,4.07-7.3a4.94,4.94,0,0,0-2.89-4.33,3.53,3.53,0,0,0-4.44,1.77,11.26,11.26,0,0,0-.73,7.93A2.75,2.75,0,0,0,458.7,351.44Z" transform="translate(-159.45 -11.99)"/><path class="cls-1" d="M493.47,309.79a1.32,1.32,0,0,0,2,0c.84-1,2.26-1.82,2.27-3.08,0-.8-1.09-1.11-2-1.89a1.75,1.75,0,0,0-1.49-.36c-1.74.39-2.67,1.25-2.33,2.75A6.73,6.73,0,0,0,493.47,309.79Z" transform="translate(-159.45 -11.99)"/><path class="cls-1" d="M407.5,203.07c4.23,3.83,4.08,4.24,9.65,1.88,3.28-1.4,3.49-2.48,3.74-4.87,1-9.32,1.93-18.63,2.61-25.16.25-10.74.16-13.28-5.2-19.93-2.89-3.59-10-4.8-13.39-2.16-5.45,4.27-6.22,9.72-6.84,13.07-1.59,8.6-1.54,17.42-2.09,26.15-.08,1.16,1.57,2.68,2.53,3.48C401.63,198.15,404.48,200.34,407.5,203.07Z" transform="translate(-159.45 -11.99)"/><path class="cls-1" d="M530.1,294.84a88.23,88.23,0,0,0-4.27,9.33c-.9,2.28-.16,4,2.67,3.52,1.38-.22,3.19-1,3.6-2,1.28-3.09,1.78-6.48,2.82-9.68.38-1.2-1.12-1.54-1.85-1.68C532.11,294.16,530.4,294.28,530.1,294.84Z" transform="translate(-159.45 -11.99)"/><path class="cls-1" d="M502.27,339.46c-3.25.47-6.57,4.6-9,7-2.86,2.8.49,6.45,4.25,8.77.92.57,2.58.1,3.35-.53a105.07,105.07,0,0,0,8.15-7.5c2.13-2.15,1.91-3.38-.79-4.95C506.45,341.21,504.7,339.11,502.27,339.46Z" transform="translate(-159.45 -11.99)"/><path class="cls-1" d="M530.09,261.35c-.39-3.48-1.58-6.58-2.49-9.82a73.79,73.79,0,0,0-4.94-12.43c-2.84-5.81-15-24.63-22.52-25.43-1.95-.21,1.56,2.07,2.3,2.67,5.46,4.37,9.28,10.09,13.15,15.94a116.33,116.33,0,0,1,7.07,11.85c.7,1.73,1.63,4.28,2.14,6.06a71.91,71.91,0,0,1,2.42,20.6,86,86,0,0,1-3.52,20.12A107.8,107.8,0,0,1,518,305a58.45,58.45,0,0,1-4.51,7.79c-3.27,4.82-6.78,9.49-10.38,14.08-3.73,4.76-7.33,9.69-11.6,13.94a118.1,118.1,0,0,1-23.07,17.77c-2.72,1.63-5.46,3.27-8.33,4.62-4.09,1.93-8.27,3.69-12.48,5.36-7.59,3-15,6.55-22.88,8.79a152.86,152.86,0,0,1-16.88,3.6,187.08,187.08,0,0,1-28,.28,126.38,126.38,0,0,1-22.56-3.34,58.63,58.63,0,0,1-14.8-5.72c-4.14-2.22-8.84-5.15-12.87-7.56a56.46,56.46,0,0,1-14.16-11.77c-.54-.62-4.4-5.15-5.72-6.9-2.36-3.13-4.87-6.68-7.12-9.33-.7-.83-.24,1.8.1,2.47a97.91,97.91,0,0,0,13.68,20,52.58,52.58,0,0,0,9.05,8.35c5.8,3.78,11.52,7.74,18,10.54,7.95,3.45,12.5,5.73,20.78,8.45,3.24,1.06,13.34,3.67,13.52,2.66.78-4.47,2.69-5.61,6-5.25,4.3.47,8.64.59,12.88,1.34a4.47,4.47,0,0,1,3.55,4.15c.06.83,3.65.62,4.47.54,10.65-1,20.53-4.21,30.83-6.36.51-.11,1.85-1.41,1.7-2.17-.51-2.71-.5-5,2.11-6.14,4.25-1.83,8.54-3.56,12.89-5.15,2.88-1.06,5.06.6,7.31,3,.48.52,1.73,1.28,2.28,1.06a105.28,105.28,0,0,0,17.41-8.72,92.26,92.26,0,0,0,9-7.07c4.8-4,3.15-4.49.7-7.73-.84-1.12.15-3.66,1.72-5,3.1-2.62,4.37-3.77,7.24-6.62s4.26-3.34,7.83-2.18a3,3,0,0,0,2.61-.92,123.62,123.62,0,0,0,8-11.08A138.23,138.23,0,0,0,523,311.57c.47-1,.81-2.27.13-2.83-1.28-1.05-1.22-2.52-1.09-3.83a17.71,17.71,0,0,1,1.39-5c1-2.53,2.69-6.79,4.62-8.06,2.92-1.93,2.53-3.52,2.57-6.26C530.7,280.51,530.8,267.64,530.09,261.35Z" transform="translate(-159.45 -11.99)"/><path class="cls-1" d="M384.43,274.85a11.57,11.57,0,0,0,15.9,1.28h0a46.9,46.9,0,0,0,8.1-7.95c1.68-2.19,3.44-4.89,2.51-8.05-2.06-7-7.08-10.29-14.22-9.46a21.12,21.12,0,0,0-11.22,4.47c-3.95,3.24-4.5,7.86-4.08,12.58A12.62,12.62,0,0,0,384.43,274.85Z" transform="translate(-159.45 -11.99)"/><path class="cls-1" d="M528.77,231.8c-3.76,2.23-4.62,4-2.8,8.16.61,1.42,1.33,2.81,1.86,4.27,1.34,3.69,3.26,4.77,7.1,3.73,5.62-1.53,11.27-3,16.8-4.77a123.18,123.18,0,0,0,13.86-5.48,82.45,82.45,0,0,0,10.42-6.1c4.84-3.23,9-7.17,11.15-12.8.86-2.27-.31-5.05-3.52-7.59-2.81-2.21-10.56-3-19.29.59A123.34,123.34,0,0,0,549,219.15C542.12,223.12,535.61,227.74,528.77,231.8Z" transform="translate(-159.45 -11.99)"/><path class="cls-1" d="M440.39,378.32c-.51,1.84,1.36,4.64,2.69,6.09.44.46,2.06.25,2.9-.15,3.51-1.63,8.21-2.59,11-5.51.66-.69-1.8-4.48-3.6-5C451.36,373.14,440.7,377.2,440.39,378.32Z" transform="translate(-159.45 -11.99)"/><path class="cls-1" d="M385.15,397.5c-3.61,1.91-7.08,13.62-7.75,16.28a80.47,80.47,0,0,0-2,12.16,147.51,147.51,0,0,0-.19,17.72c.14,3.93.22,8,1.35,11.78.75,2.53,4.43,2.82,6.7,2.69,1.56-.09,7.05-2.21,8.17-4.71,3.59-8,3.7-15.47,3.76-24.46.07-9.69-1.41-19.28-3.11-29C391.58,397.08,388.18,395.9,385.15,397.5Z" transform="translate(-159.45 -11.99)"/><path class="cls-1" d="M397.62,390.93a1.83,1.83,0,0,0-1.52-2.15,38.82,38.82,0,0,0-7.82-.9,22.07,22.07,0,0,0-6.34.45c-.64.17-1.61,2.22-1.57,3.07,0,.6,1.16,1.57,1.87,1.64a115.18,115.18,0,0,0,13.39.07A3,3,0,0,0,397.62,390.93Z" transform="translate(-159.45 -11.99)"/><path class="cls-1" d="M476.88,446.87c3.09-5.83,2.59-11.35.94-17.23a72.07,72.07,0,0,0-5.4-14c-2.93-5.64-5.55-9.94-8.29-15-2.36-4.39-5.35-8.58-7.72-13-1.37-2.55-2.33-2.85-4.85-1.38-3.54,2.05-3.33,5.11-2.91,10.27.35,4.33.89,9.71,1.41,13.37.93,6.67,2,14,3.44,20.49a37.69,37.69,0,0,0,5.6,13.22c2.37,3.59,6.07,7.09,11.76,7.2C472.07,451.13,475.81,448.89,476.88,446.87Z" transform="translate(-159.45 -11.99)"/><path class="cls-1" d="M317.47,401.47c3.73-5.65,7.33-11.39,10.92-17.13,1.24-2,2.3-4.06,3.41-6.1.82-1.51.29-2.61-1.05-3.52a81,81,0,0,0-7.72-5.16,5.49,5.49,0,0,0-4.35.28,38.15,38.15,0,0,0-5.9,4.3c-4.38,3.51-8.64,7.19-13.1,10.61a50.83,50.83,0,0,0-11.83,13.79c-2.45,3.95-5.37,9.83-5.79,14.47-.44,4.88,4.3,9.12,7.62,9.71,5.22.92,15.09-4.2,19.79-10C312.37,409.17,314.93,405.32,317.47,401.47Z" transform="translate(-159.45 -11.99)"/><path class="cls-9" d="M445.13,393c-.27-4-1.35-6-5.29-5.79a106.2,106.2,0,0,0-15.6,2.32c-7.7,1.54-15.32,3.47-23,5-3.49.7-5.73,1.66-5.13,5.19.19,1.08,2.11,12.78,2.58,17.59a105.4,105.4,0,0,1-1.84,32.32c-1.92,8.54-6.53,12.53-15.75,12.73-3.31.07-6.43-.71-7.67-4.3-.91-2.66-1.81-12.47-2-15.31-.31-4.15,0-8.55.07-12.53.11-5,.29-9.92,1.72-14.78,1.5-5.12,3-10.15,4.82-15.17.46-1.27,1.3-3.34.71-3.57a3.19,3.19,0,0,1-2.08-2.85c.2-.76-1.71-1.12-2.45-1.34-6.18-1.84-12.47-3.37-18.56-5.44-5.46-1.86-10.78-4.19-16.06-6.53-2.72-1.2-4.83-.75-6.21,1.64-2.41,4.21-4.89,8.38-7.48,12.49s-5.37,8.14-8.08,12.2c-1,1.5-2.05,3-3.13,4.39-2.13,2.71-3.56,5.67-3.77,7.48-.55,4.56-.74,9.26-1.19,13.83-.7,7-2.24,14.23-3.36,21.19s-3.6,14.4-3,14.51c1.49.27,10.38-9.54,13.19-13.07,4.12-5.18,8.25-9.19,14.21-12a20.41,20.41,0,0,1,8.95-2.1c6.6.21,11,3.53,15.41,7.62,5.85,5.43,6.64,10.58,9.73,18.59,2,5.26,3.72,10.47,5.47,15.74,1.11,3.36,2,6.8,3,10.17,1.68,5.33,3.34,10.88,4.72,16.28s2.57,10.18,3.77,15.78c.59,2.77,1.14,5.37,1.84,8.11,1.17,4.56,2.25,9.32,3.08,13.94a200.8,200.8,0,0,1,3,20.24c.18,2.4.55,6,1.11,6,1,0,1.52-14.08,1.8-17.09.71-7.69,1.47-15.39,1.64-23.08.11-5.14.1-10.19.4-15.32.44-7.43.92-14.89,2-22.26,1.48-10.45,3.4-20.84,5.33-31.23a51.88,51.88,0,0,1,2.71-10.37A79.37,79.37,0,0,1,411,441.83a28.39,28.39,0,0,1,7-7.87,29.55,29.55,0,0,1,15-5.14c4.47-.38,8.58-.3,13.44,1.78a7.42,7.42,0,0,0,2.37.91c.64.07-1.2-7.86-1.54-11.63C446.48,410.92,445.73,402,445.13,393Z" transform="translate(-159.45 -11.99)"/><path class="cls-9" d="M553.38,403.28a38.63,38.63,0,0,1-17.23-7,71.89,71.89,0,0,1-16.41-15.92c-3.37-4.37-7.27-10-10.55-14.42a73.36,73.36,0,0,1-4.62-6.85c-1-1.8-2.11-1.6-3.82-.54-.95.59-2.74.94-3.56.43-2.71-1.67-4.4-.34-6.21,1.38-1.32,1.26-2.76,2.38-4.09,3.63-4.26,4-7.19,5.71-12.28,8.86-4.34,2.7-11.06,4.95-14.25,9.32-1,1.37-1.67,2.41-1,3.89,1.65,3.45,3.87,7.09,5.76,10.41,3,5.2,6.15,10,8.92,15.25a100.07,100.07,0,0,1,7.45,17.31c2.56,8.5,1.15,16.63-4.94,22.9-1.24,1.28-1.62,2.07-.56,3.69,3.7,5.69,7.65,11.68,11.22,17.45.37.6,7.07,11.37,10.27,16.26,2,3.05,3.76,6.24,5.73,9.31.42.66,3.51,5.57,4.65,5.09.77-.32-5.45-23.15-6.35-26.93-1.21-5.11-4.4-20.11-5.45-27.05a145.53,145.53,0,0,1-1.93-23.33,30.2,30.2,0,0,1,5.45-17.72c1.56-2.19,7.22-5.82,11.27-5,11,2.17,16.23,7.14,17.19,7.81,3.85,2.64,7.63,5.57,11.38,8.34,1.67,1.23,11.66,9.43,15.13,12.29,2.35,2,4.55,4.11,6.93,6.19a127,127,0,0,1,10,9.22c5.66,6.18,11.25,12.32,16.65,18.74,3.5,4.17,10.1,11.49,14,15.33,1,.95,4.9,4.74,5.7,4.39.43-.18-4.39-7.12-4.9-7.92-5.34-8.4-13.77-20.15-19.09-28.55-1.83-2.88-4-6.44-5.65-9.4-3-5.21-5.51-9.33-8.64-14.35-3.27-5.25-6.13-9.73-10-15.7-1-1.52-2.37-3.44-3.33-5A4.92,4.92,0,0,0,553.38,403.28Z" transform="translate(-159.45 -11.99)"/><path class="cls-1" d="M275.65,348.52c2.12-.73,4.17-1.63,6.28-2.39a71.93,71.93,0,0,0,15.88-7.45,2.15,2.15,0,0,0,.74-1.89c-.73-2-1.8-3.9-2.58-5.9-.94-2.41-2.18-3.76-5.16-3.81a114.3,114.3,0,0,0-30,3.74,54.88,54.88,0,0,0-18.36,8.35c-2.82,2-6,3.71-6.18,8.17-.1,2.48,1.49,4.44,4,5.9,3.74,2.2,7.48,1.94,11.33,1.79,3.7-.15,7.66-1.37,11.26-2.34C267.17,351.52,271.4,350,275.65,348.52Z" transform="translate(-159.45 -11.99)"/><path class="cls-9" d="M258.32,328.58c5.8-1.26,11.24-2.47,17.13-3.22a123.64,123.64,0,0,1,15.91-.74c1.57,0,1.88-.73,1.83-2.14-.07-2.29-.31-4.59-.32-6.88,0-4.59-.08-9.18.21-13.75.28-4.35,1-8.67,1.54-13.16a12,12,0,0,0-1.34-.31c-7.67-.75-15.34-1.51-23-2.22-2.11-.19-4.11-.67-6.15,1a57.51,57.51,0,0,1-9.4,6.33,106.52,106.52,0,0,1-12,5.41c-8.84,3.45-17.68,6.89-26.63,10s-16,4.53-16,5.62c0,.9,11.72,1.23,18.16,2A68.64,68.64,0,0,1,227,318c5.32,1.28,10.73,3,15.91,4.75a63.4,63.4,0,0,1,10.2,4.75A7.23,7.23,0,0,0,258.32,328.58Z" transform="translate(-159.45 -11.99)"/><path class="cls-1" d="M580.43,298.35c-3.93-1.23-10.32-.86-14.52-1.09-3.31-.19-6.65,0-10,0v0c-4.72,0-9.43,0-14.14,0-2.51,0-3.55,1.5-4.15,3.37-.66,2-2.51,5.55-.33,7.15,1.12.83,25.23,8.15,27.55,8.65,6,1.29,11.65,3.9,17.75,4,1.8,0,6.81-.85,9-2.12,3-1.73,3.43-8.6.84-11.8A22.14,22.14,0,0,0,580.43,298.35Z" transform="translate(-159.45 -11.99)"/><path class="cls-9" d="M694.21,281.52c-6.42-1.51-13.24-3.06-19.65-4.6-6.19-1.49-11.75-2.77-18-4.16-7-1.57-14.6-3.43-21.67-4.88-3.59-.74-7-1.74-10.55-2.64-3.3-.84-6.55-1.79-9.82-2.78L603.25,259c-4-1.23-8.06-2.22-12-3.59-4.55-1.58-9-3.45-13.48-5.23-3.5-1.39-7-2.91-10.44-4.31a18.87,18.87,0,0,0-10.74-1.24c-3.68.59-6.22,1.69-9.17,2.48-4.67,1.26-8.73,2.58-13.44,3.76a3.09,3.09,0,0,0-2.41,3.29c.6,4.07,1,8.19,1.34,12.29.71,7.28,1.34,14.57,2.08,21.85.08.83.39,2.12.95,2.35,2.32,1,4.76,2.17,7.19,2.25,10.7.35,19.57.55,30.27.9a62.6,62.6,0,0,1,12.28,1.44,14.43,14.43,0,0,0,8.91-.52,52.81,52.81,0,0,1,16.81-4.6c12.5-1.13,25.75-1.3,38.27-2.94a209,209,0,0,1,23.52-1.5c9.13-.18,33.5.37,33.5-.39S695.87,281.92,694.21,281.52Z" transform="translate(-159.45 -11.99)"/><path class="cls-1" d="M276.85,283.8q8.36.81,16.73,1.19a3.75,3.75,0,0,0,2.66-1.53c2.25-3.17,4.35-6.47,6.38-9.79a1.45,1.45,0,0,0,0-2.05c-2.11-2.17-4.74-4.13-10.45-5.72-6.57-1.83-9.85-2.75-12.7-3.35a150.05,150.05,0,0,0-23.63-3.32,27.24,27.24,0,0,0-8.46,1c-2.93.82-6,1.72-7.06,4.25-.58,1.34-.5,3.05.42,5.27,1.83,4.39,6,6.17,9.87,8a57.61,57.61,0,0,0,17.07,5.39C270.74,283.53,273.77,283.5,276.85,283.8Z" transform="translate(-159.45 -11.99)"/><path class="cls-9" d="M569.27,321.63c-4.62-1.64-9.24-3.26-13.89-4.81-5.62-1.89-11.4-3.39-16.87-5.63-5-2-10.54-.4-13.06,4.28-3,5.62-6.27,11.12-9.58,16.58-1.61,2.67-3.09,4.11-4.68,6.64-.87,1.38,1.82,2.55,3,3.19a2.67,2.67,0,0,1,.93,3.73c-.94,1.4-1.11,2,.47,2.95,3.52,2.08,6.91,4.37,10.45,6.64,2.54-3.82,6-4.92,10.26-4.83A113.32,113.32,0,0,1,570.06,356c7.74,2.58,15.52,5,23.19,7.76,4.93,1.77,9.7,4,14.55,6,8.73,3.61,17.45,7.26,26.21,10.82,2.83,1.15,11.31,4.91,11.72,4.21S636,376.67,633,374.36c-4.11-3.15-8.27-6.23-12.4-9.36-4.58-3.49-9.21-6.91-13.7-10.51-6.19-4.95-12.43-9.87-18.34-15.14a80,80,0,0,1-9.9-10.74A20.06,20.06,0,0,0,569.27,321.63Z" transform="translate(-159.45 -11.99)"/><path class="cls-1" d="M515,352.18c-3.78-2.42-4.2-2.47-7.17.94-1.1,1.25-2.17,2.34-1,4,1.3,2,2.57,4,4,5.79,3.85,4.83,7.46,10.06,11.23,14.95,5.83,7.56,14.38,14.07,18.14,16.73,4.42,3.13,8,5.4,13.92,4.85,2-.19,4.73-1.91,6.26-3.83,2-2.52,1.56-5,.36-7.13-1.89-3.4-4.94-6.23-7.77-9a132.4,132.4,0,0,0-10.81-9.7c-4.16-3.29-8.53-6.34-13-9.21S519.58,355.13,515,352.18Z" transform="translate(-159.45 -11.99)"/><path class="cls-9" d="M297.76,382.36c6.67-5.47,13.1-10.18,19.69-15.63.94-.77-3.08-5-4.72-7.24-3.58-4.84-7.16-9.71-10.3-14.83-1.64-2.67-3-2.33-5.61-1.55a60.91,60.91,0,0,0-8.69,3.29c-9.63,4.24-16,6.05-25.95,9.55-.58.2-5.28,1.5-5.64,1.94-5,6.12-9.2,11.39-14.71,17.17-4,4.21-9.44,10.19-13.24,14.35-6.41,7-13.27,13.34-20,20-4.25,4.22-8.32,8.62-12.58,12.82-6.81,6.72-13.74,13.3-20.54,20-1.42,1.4-3.93,4.33-3.7,4.75.67,1.18,10.22-5,14.06-7.36,5.41-3.31,11.07-6.37,16.56-9.53,5.86-3.38,11.57-6.84,17.48-10.14,6.78-3.8,13.86-7.46,20.72-11.09,3.31-1.75,7.07-3.5,10.53-5,4.77-2,9-3.82,13.75-5.76,2.68-1.09,5.46-1.93,8.21-2.85,3.4-1.14,11.84-3.79,15-5.33C290.33,388.92,296,383.84,297.76,382.36Z" transform="translate(-159.45 -11.99)"/><path class="cls-9" d="M244.56,256.53c4-1.09,8.3-2.06,12.34-1.75,9.88.74,19.73,1.92,29.32,5,6,1.91,12.13,3.32,17.74,6.4.9.5,3-.28,4-1.12,1.15-1,2.82-2.47,1.07-4.34-2.9-3.09-5.83-6.15-8.88-9.09a3.3,3.3,0,0,1,0-4.76c3.45-3.38,6.74-7,10.45-10,2.33-1.92,1.45-3.42.36-5.14-2.65-4.2-5.48-8.27-8-12.52-1.93-3.23-4-6.41-4.7-10.12-.61-3.16.59-10.83,5.32-12.9,3.89-1.71,10.37-1.61,15.48,1.93,2.32,1.61,8.83,10,11.27,13.4,2.05,2.87,4.11,5.59,6.05,8.55a4.21,4.21,0,0,0,3.31,1.69c1.56-.14,2.07-2.64,5.89-11.22,2.86-6.41,4.57-8.89,8.54-14.69,1.49-2.18,6.12-7.51,8.31-8.83,3-1.83,6.66-1.71,10.21-1.18A61.44,61.44,0,0,1,390,191c2.17,1,2.85.56,3-1.71.26-5.81.67-11.25,1.26-17a85.21,85.21,0,0,1,2.44-13.24c1.29-4.81,4.59-8.34,8.86-10.82,5.13-3,11.72-1,15.83,4.45,7.41,9.82,5.38,15.85,5.06,25.31-.26,7.68-2.38,16.74-2,22.52.08,1,1.91.73,3,.38,3.24-1.09,5.84-2.16,9.07-3.29a66.45,66.45,0,0,1,21.9-3.46c2.86,0,11.71.5,12.47.55,1.27.09,1,1.09,1.61,3s1,2.44,1.57,2.57a1.23,1.23,0,0,0,1.41-1c.74-4,1.67-7.58,2.67-11.85a117.14,117.14,0,0,1,6.69-19.55c3.25-7.58,8.25-13.43,17.08-14.74a2.89,2.89,0,0,0,1.92-1.32c1-2,1.69-4.12,2.52-6.18,3.27-8.25,6.47-16.53,9.85-24.73,1.5-3.64,3-7.31,4.7-10.89,3.43-7.39,7.16-14.61,10.58-22,1.07-2.32,2.2-4.6,3.37-6.86,1.06-2.06,6.38-12.84,8.09-16.12,2.32-4.47,4.87-8.81,7.22-13.26,1.38-2.61,2.58-5.32,3.85-8,.65-1.35,1.3-2.7,1.91-4.07,1.1-2.51,6.51-12.28,5.84-12.82s-2.93,3.46-4.88,6.35c-1.07,1.58-3.2,5-4.22,6.47C547,48,541.4,54.18,535.32,62.13c-2,2.65-3.93,5.41-5.92,8.1-4.39,6-8.85,11.84-13.18,17.84s-8.76,12.26-13,18.47a50.85,50.85,0,0,1-9.87,10.51c-4.21,3.48-10.08,7.39-14.63,10.44-6,4-12.52,6.76-19.28,9.31-5.94,2.25-10.62-2.7-12.7-5.7a57.19,57.19,0,0,1-5.15-10c-1.58-3.71-3-7.48-4.26-11.3-.79-2.39-1.71-5-2.29-7.47a111.74,111.74,0,0,1-2.67-16c-1-11.39-1.73-22.87-2.32-34.3,0-1.05.13-3.88-.49-3.88s-2.24,4.27-2.88,5.88c-1,2.4-1.85,5.88-2.74,8.29-1.41,3.83-2.44,6.44-3.78,10.29-1.14,3.28-2.3,7.16-3.44,10.44-2.5,7.2-4.44,14.32-7.36,21.34-3.13,7.53-5.94,14.79-9.46,22.31-2.51,5.38-4.24,10.82-7.15,16-3.13,5.54-6.3,10.91-10.87,15.42s-10.48,5.06-15.68,1.05a36.46,36.46,0,0,1-9-10.08c-2.26-3.73-4.42-7.16-6.62-11-1.46-2.53-3.05-5-4.67-7.41-2.87-4.34-5.42-8.93-8.22-13.31-1.76-2.74-3.36-5.79-5-8.64-1.43-2.52-4.33-8.35-5.4-8-.62.19-.06,5.79.18,8.13,1,10,2.39,20,3.12,30a139.84,139.84,0,0,1,.19,20.16c-.45,6-1.42,10.92-5.23,15-2.59,2.75-4,4.34-8.28,6-7.11,2.74-17.85-.52-23.13-2.08-3.49-1-6.93-2.44-10.37-3.61-4.31-1.46-8.65-2.88-12.91-4.47-3.56-1.34-7.18-2.75-10.75-4.05-4.94-1.8-9.82-3.49-14.72-5.38-6.15-2.36-12.15-5.13-18.29-7.54-7.17-2.82-14.41-5.48-21.65-8.12-1.42-.52-4.83-1.79-5.23-1.23s1.47,2.51,2,3.08a106,106,0,0,0,9.52,8.69c5.69,4.83,11.44,9.61,17.17,14.4,7.65,6.37,15.46,12.55,22.91,19.14s14.64,13.08,20.71,20.9c3.38,4.35,6.37,8.81,7.63,14.2,1,4.26,1,8.85-2,12-4.75,5-11.05,6.48-17.87,5.41-5.86-.93-11.7-2-17.57-2.86-8.43-1.27-16.88-2.37-25.31-3.67-8.78-1.36-16.69-3.64-25.57-4.2-1.09-.07-2.86-.38-3.21.23-.22.38,6.27,3.9,9.17,5.44,5.77,3.05,11.62,6,17.44,8.94,7.54,3.85,15.13,7.61,22.6,11.61C240.18,258.05,242.16,257.17,244.56,256.53Z" transform="translate(-159.45 -11.99)"/><path class="cls-9" d="M500.69,205.29c-.84,1.86-1.41,3.52.56,4.69a18.52,18.52,0,0,1,2.61,2c6.08,5.22,10.07,9.8,15.68,16.39a4.78,4.78,0,0,0,3,1.45,6,6,0,0,0,3-1.26c6.83-4.27,13.54-8.75,20.48-12.82,2.82-1.65,4.1-1.76,3.46-6.68-.58-4.39,1.08-8.46,3.07-12.09,2.74-5,6.29-9.61,9.52-14.37,3.42-5.06,6.73-10.21,10.36-15.13,2.43-3.31,5.13-6.27,7.71-9.48,3.91-4.89,8.21-9.54,12-14.51.34-.45,2.94-3.67,2.67-4-.42-.52-4.49,1.81-7.17,3.39-4.57,2.69-9.15,5.49-13.69,8.23-3.71,2.26-7.2,4.91-11,7-7,3.73-14.1,7.27-21.77,9.57-6.06,1.81-12.12,3.27-18.48,3.21h-3c-3.22,0-3.64.83-4.59,4-1.94,6.49-2.82,9.86-6.26,16.19C505.5,197,502.3,201.76,500.69,205.29Z" transform="translate(-159.45 -11.99)"/><path class="cls-1" d="M297.89,294.18a57.69,57.69,0,0,0-1.37,16.43,53,53,0,0,0,2.57,13.66,43.31,43.31,0,0,0,5.07,9.79,133.66,133.66,0,0,0,12.35,15.72,66.69,66.69,0,0,0,13,11.09,103.58,103.58,0,0,0,11.93,6.88,96.53,96.53,0,0,0,21.45,7.58A273.21,273.21,0,0,0,394.13,378a102.87,102.87,0,0,0,21.5-1.93,141.59,141.59,0,0,0,19.69-6.16c6.7-2.51,13.24-5.45,19.74-8.46a101.14,101.14,0,0,0,13-7,136.27,136.27,0,0,0,18.39-14A150.71,150.71,0,0,0,499,327c1.9-2.24,4.16-5.52,5.87-7.92a140,140,0,0,0,8.84-13.56,86.07,86.07,0,0,0,7.15-16.74,92.59,92.59,0,0,0,2.87-17.05c1-9.61.53-19.18-4.32-27.86-3.13-5.61-9.37-16.17-13.77-20.48s-8.07-8.47-13-11.86a44.89,44.89,0,0,0-14.11-6.76c-1.82-.59-3.92-.33-3.64,1.27,1.15,6.66.56,10.77.3,16.08-.12,2.29,2.66,5.13,3.8,7.12,2.75,4.75,5.08,8.77,7.44,13.72a52.93,52.93,0,0,1,4.68,18.89,76.18,76.18,0,0,1,0,10.69,86.27,86.27,0,0,1-1.71,11.42c-1,5-6.06,16.62-11.76,24.21-6.35,8.46-13,16.08-21.12,22.72a91.67,91.67,0,0,1-18.24,11.54,113.48,113.48,0,0,1-16.06,6.7,92.6,92.6,0,0,1-21.12,3.79c-8.67.48-26.54-.78-27.19-.84-5.93-.55-9.63-1.7-17.51,1.62-2.23.93-4.5,1.84-6.73,2.8-3.56,1.51-6.45.69-8-2.89-2.61-6-5.16-12.05-7.19-18.26a68,68,0,0,1-2.76-13.66c-.38-3.43-.38-3.89-3.84-3.36-4.7.72-9.39,1.48-14.08,2.24-3,.48-4.59-.65-4.95-3.72-.15-1.28-.31-5-.38-6.31-.55-9.34-.36-10.78,4.05-27.84.82-3.17,3.17-8,4.13-11.09.37-1.19-.94-7.45-2-7-3.71,1.56-8.47,9.81-10.26,13.36A78.85,78.85,0,0,0,297.89,294.18Zm200.41-47.9c2.09-4.29,4.1-8.77,8.36-11.5a1.76,1.76,0,0,1,.39-.19,1.21,1.21,0,0,1,1.33,1.87s-1.38,1.9-1.41,1.93c-2,2.22-.77,3.68,1.11,6.54a29.43,29.43,0,0,1,1.77,3c.93,1.9,1.31,2.17,2.59,2.49,2.4.6,4.91.78,6.81,2.34l0,0a2.21,2.21,0,0,1,.59,2.07,2.56,2.56,0,0,1-2.08.91,38.73,38.73,0,0,1-6.44-1c-3.51-.92-6.95-2.06-10.42-3.12C497.91,250.74,496.91,249.15,498.3,246.28Zm-1.57,22c.54-4.74,7.61-7.86,11.45-5.12,1.27.91,1.77,3.08,2.32,4.77a10.93,10.93,0,0,1,.06,3.29c.08,0-.62,3.41-.67,5.1,0,.68.85,1.62,1.55,2,1.55.91,3.3,1.49,4.88,2.37.48.26,1.16.65.88,1.58a2,2,0,0,1-1.74,1.37,10.56,10.56,0,0,1-3.59-1.12c-4.23-2.09-8.41-4.27-12.6-6.42a3.11,3.11,0,0,1-1.08-.74A11.61,11.61,0,0,1,496.73,268.26Zm0,15.61c.44-1,.57-1.55,1.79-1.79,1.41-.28,2.1.54,1.47,1.84a7.16,7.16,0,0,0-.61,1.4,12.45,12.45,0,0,0-.63,4.21,3.43,3.43,0,0,0,2.06,2.4c.66.15,1.76-1,2.46-1.8,1.11-1.22,1-3.68,3.48-3.63a1.08,1.08,0,0,1,1,.92c.34,2.55-2.37,4.2-3,6.48a1.35,1.35,0,0,0,1.1,1.65c2,.35,3.19-.82,4-3a6.29,6.29,0,0,1,1.31-2.5,1.6,1.6,0,0,1,2.58,1.66c-.9,3.15-2.92,5.66-5.1,8a2.76,2.76,0,0,1-2.57-.07c-3.48-2.25-6.95-4.54-10.19-7.1C494.24,291.3,495.54,286.4,496.69,283.87Zm-14,28.29a115.51,115.51,0,0,1,8.14-10.28c1.88-2.11,5.7-1.81,8.43.18s3.2,4.13,1.86,7.14c-.55,1.25-1.12,2.49-1.66,3.74s-.85,2.32.65,3.34c.35.25,2.76,1.84,1.47,3-.79.73-1.49,1-2.25.36-4.29-3.51-6.42-.93-9.78,1a4.14,4.14,0,0,1-5.47-.82C482.39,318,481.41,314,482.7,312.16ZM470,326.64a7.73,7.73,0,0,1,2.41-3,3.23,3.23,0,0,1,4.84.75l0,.05a1,1,0,0,1-.45,1.39c-.85.35-1.51-.36-2.39-.14-1.56.39-2.66,4.86-1.67,6.23a7.92,7.92,0,0,0,3.92,3.14c1.44.56,3.22-.26,4.76-1.27a11.78,11.78,0,0,1,1.45-.95,1.24,1.24,0,0,1,1.41,1.58,2.85,2.85,0,0,1-.51,1c-2.3,2.71-6,4.06-9.06,2.43C469.82,335.2,468.12,331.93,470,326.64Zm-13,8.54a5.42,5.42,0,0,1,4.39,1,14.47,14.47,0,0,1,3.11,3.81,9.61,9.61,0,0,1-1,11.22,11.48,11.48,0,0,1-4.93,3.59c-3,.77-6.09-.79-7.83-3.94C447.94,345.78,451.29,336.84,457,335.18Zm-35,19.7a.88.88,0,0,1,1.29-.62,49.74,49.74,0,0,0,5.11,2.71,2.39,2.39,0,0,0,2.13-.88c1-1.71,1.75-3.61,2.64-5.41,1.88-3.83,2.73-3.95,6-1.44s6.59,4.6,9.81,7a1,1,0,0,1,.21.19,1.65,1.65,0,0,1-.94,2.63,1.05,1.05,0,0,1-.75,0,50.91,50.91,0,0,1-7-4.48c-2.48-1.91-3.44-1.56-4.95,1s-2.38,4.26-4.75,6c-1.36,1-2.46.31-3.21,0s-1.53-1-2.2-.93c-.49.08-.83,1.12-.93,1.82-.28,1.9-.42,3.91-.78,5.8-.11.64-1.22,1.6-1.74,1.52-.79-.12-2.08-.15-2.07-1.58C419.89,363.86,421.2,359.68,422,354.88Zm-40.25,5.25c.08-.56,2-1.45,2.75-1.2,2.53.88,3.81-.34,6.07-1.61,1.14-.63,5.28-1.14,6.27-.4,3.19,2.37,4,.89,6.75-.59,2.94-1.58,6.15-2.55,9.23-.33,2.81,2,4.42,9,3.48,12.3-.2.69-.95,1.81-1.54,1.72s-.95-1.31-1.09-2.06c-.29-1.62-.45-3.2-.81-4.8s-.5-3.48-1.86-4.15c-2.69-1.31-7.18.42-8.66,2.29-.86,1.1-1.72,7.05-1.78,7.32-.17.76-.36,2-1.57,2-.87-.05-1.34-1.71-1.58-2.46-.47-1.45-.17-3.14-.5-4.65-.23-1.05-.51-2.31-1.43-2.52a9.33,9.33,0,0,0-5.38.45,11.43,11.43,0,0,0-4,3.12,10.34,10.34,0,0,0-1.66,3.62c-.28.85,0,2-.41,2.66a2.5,2.5,0,0,1-1.15.8,1.34,1.34,0,0,1-1.69-.55,1.58,1.58,0,0,1-.26-.82A97,97,0,0,1,381.77,360.13Zm-28.28,5.69c3.75-4.06,7-8.73,12.55-10.67a6.76,6.76,0,0,1,8.75,4.44,34,34,0,0,1,1.93,9.75c0,1.82-.29,2.69-1,2.78-2,.28-1.78-3.48-1.89-4.07a1.29,1.29,0,0,0-.91-1.13c-4.39-.68-8.3-1.59-12.53-2-1.19-.11-2.51,1.14-3.76,1.78a8.58,8.58,0,0,1-1.9,1,1.64,1.64,0,0,1-1.27-.66A1.28,1.28,0,0,1,353.49,365.82Z" transform="translate(-159.45 -11.99)"/><path class="cls-1" d="M499.17,157.42c-4.07,1.48-6.49,3.28-8.05,5.63-2.79,4.16-4.38,8.84-6.54,13.57-1.51,3.3-5.84,19.71-6.06,24-.08,1.54,8.65,3.55,12.64,4.65,3,.85,5.22.32,6.83-2.36a150.54,150.54,0,0,0,8.16-14.55,58.43,58.43,0,0,0,5.68-21.41c.19-3.62-1.35-7.53-4-8.31S501.73,156.48,499.17,157.42Z" transform="translate(-159.45 -11.99)"/></g><g id="контур"><path d="M710.09,283.2c-9.37-2.09-18.67-4.5-28-6.73-7.93-1.89-15.89-3.68-23.82-5.56-7.32-1.73-14.63-3.52-21.94-5.28-6.4-1.54-12.83-3-19.2-4.65-5-1.34-10-3.07-15-4.53-3.69-1.08-8.08-2.27-11.72-3.51-3.17-1.09-10-3.93-15.49-6.05-3.53-1.37-7.84-3.37-10.77-4.38-.94-.32.94-1.59,1.55-2a142.37,142.37,0,0,0,16.93-10.7,22.41,22.41,0,0,0,7.63-12.14,8.68,8.68,0,0,0-2.32-7.88c-4.15-4.53-9.15-5.07-14.46-5.15a34.66,34.66,0,0,0-15.06,3.8c-2.47,1.26-3.7,2.13-5.32,2.58-.43.12-1.22-3.08-1.06-5.19.24-3.23,2.42-7.6,4-10.17,2.38-3.84,5.09-7.49,7.45-11.3,3.67-5.93,6.78-10.63,10.59-16.21,3.18-4.65,7.66-9.57,11.26-13.92,4.17-5.05,8.54-9.94,12.77-15,1.83-2.16,5.1-6.92,4.88-7.19-.35-.43-3,1.26-4.39,2.05-5.65,3.24-11.35,6.41-16.94,9.76-4,2.39-8.17,4.89-12.09,7.37-5.22,3.32-9.87,6.5-15.58,9a111.57,111.57,0,0,1-13.57,5.12A93.55,93.55,0,0,1,527.63,168a40.64,40.64,0,0,1-8,0c-2.63-.14-3.75-.21-4.55-4.45-.45-2.33-1.64-5.13-2.74-6.15-2.85-2.64-4.77-4.69-3.28-8.76,2.42-6.65,4.31-12.89,7-19.46,2.19-5.44,4.24-11.34,6.69-16.66s4.63-10.57,7.18-15.77c2.93-6,6-11.79,8.8-17.8.93-1.95,7.15-14.91,9.47-19,1.32-2.32,2.44-4.18,3.64-6.62l2.06-4.19c2.35-4.7,4.57-9.47,6.83-14.21,1.05-2.21,2-4.45,3.13-6.61,2.09-4.06,2.23-4.89,3.16-6.72.54-1,3.33-9.52,2.45-9.66s-4.15,5-6.13,7.6c-1.35,1.75-7.6,10.08-9.21,12.68-1.81,2.91-3.56,5.87-5.5,8.69-2.29,3.34-4.67,6.62-7.16,9.81-2.32,3-4.92,5.72-7.24,8.7-1.74,2.22-3.47,4.32-5.19,6.55-3.41,4.42-6.65,9.11-10.08,13.51-2.39,3.07-4.71,6.18-6.93,9.37-2.77,4-5.32,8.12-8.13,12.08-2.46,3.47-4.8,7.14-7.82,10.09a95.12,95.12,0,0,1-11.5,9.7c-2.73,1.77-6.12,4.24-8.31,5.5a93.57,93.57,0,0,1-16.6,7.46,8.64,8.64,0,0,1-7.67-.77c-2.51-1.52-4.67-5.62-5.89-8a89.17,89.17,0,0,1-5-11.75c-.53-1.53-3.15-9.06-3.49-10.66-1.16-5.47-1.53-8.44-2.3-14-1-7.34-1.42-15.66-2-23.06-.52-7-.52-12-.8-19-.11-2.62.2-10.56-.67-10.7s-4.48,9.38-5.44,12c-1.86,5.15-4,10.43-5.29,13.85-1.53,4.21-3,8.37-4.38,12.63s-2.92,8.25-4.28,12.51-2.77,9-4.38,13.36c-.81,2.2-1.61,4.41-2.56,6.55-1.87,4.23-3.9,8.39-5.76,12.63-2.52,5.74-4.72,11.62-7.34,17.3-3.22,7-6.83,13.54-12.2,18.77-2.48,2.42-6.25,3.9-8.82,2.82-5.88-2.49-9.27-7.48-12.6-12.45-2.94-4.38-5.52-8.74-8.33-13.21-2.14-3.41-4.27-6.77-6.42-10.18-1.52-2.4-3-5.15-4.45-7.59-1.85-3.07-3.73-6-5.33-9.19-2.74-5.45-4.87-8.91-6.29-11.95s-3.53-7.61-4.25-7.44c-1.12.25-.7,5.33-.52,7.73.37,5,.72,10.06,1.31,15,1.46,12.25,3,23.71,3.06,35.66a140.57,140.57,0,0,1-.6,16c-.5,4.61-1.41,9-5.34,12.62s-6.79,4.39-12.76,4.14c-7.16-.3-13.6-2.36-20.26-4.71-9.77-3.45-19.75-6.68-29.45-10.3-6.42-2.41-12.78-5.14-19.18-7.62-9.37-3.62-18.81-7.06-28.21-10.62-4.66-1.78-9.29-3.64-13.93-5.49-2.34-.93-4.64-2-7-2.8-.51-.17-4.25-1.43-4.49-1s4.42,4.8,5.05,5.31c3.27,2.63,6.44,5.17,9.54,8,4,3.6,8.44,7.33,12.38,11,2.8,2.57,4.37,4.44,7.22,6.82,3,2.51,5.85,5.3,8.89,7.83,5.06,4.21,10.24,8.27,15.35,12.42,2.15,1.75,4.27,3.53,6.33,5.37,2.85,2.55,5.74,5.06,8.41,7.79,2.45,2.51,4.54,5.37,7,7.91,4.69,4.93,8.86,10.14,10.91,16.79,1.41,4.58-1.26,10.51-5.16,12.16-6.82,2.89-13.74,2-20.68.75-4.47-.77-8.91-1.71-13.39-2.4-6.32-1-12.66-1.77-19-2.73-5.85-.89-11.67-1.89-17.51-2.85-6.49-1.06-13-2.15-19.47-3.16-3-.48-9.89-1.68-10-1.28s1.66,1.65,2.37,2c2.81,1.28,5.55,2.82,8.29,4.23,5.82,3,11.52,6.24,17.27,9.39,2.91,1.59,17.82,9.18,22.33,11.29a101.42,101.42,0,0,1,12.76,7.39c1.17.76,2.84,2.9,2.52,4.15-1.3,5.12.68,10.39,3.76,12.77A43.19,43.19,0,0,0,260.1,284c.53.1,1.91,1,1.19,2a18.24,18.24,0,0,1-3.72,3.18,105.6,105.6,0,0,1-18.06,8.69c-5.85,2.24-13.58,5.06-19.5,7.18-5.19,1.86-10.26,3.59-15.66,5.29-4.72,1.48-18.24,4-18.2,5.22,0,.78,19.82,2.08,26.19,2.66a107.73,107.73,0,0,1,22.17,4.39c6.69,2,10.12,3.76,16.31,7.2,1.12.63.58,1.5.08,1.76-5.78,3-11.8,5.63-16.13,10.92-2,2.45-2.42,8.26-.33,10.52,3.62,3.91,5.27,4.89,13.35,5.26,1.26.05,4-.16,3.9.2-.62,3.32-6.8,9.82-9.91,13.16-5.16,5.53-10.41,11-15.64,16.43-3.83,4-7.7,8-11.54,12-1.38,1.43-10.07,9.86-12.79,12.58-4.83,4.82-9.31,9.37-14.1,14.23-3.78,3.84-7.43,7.56-11.23,11.38-2,2-4,4.12-5.92,6.15-2.9,3.06-11.95,11.54-11,12.66s12.45-6,17.94-9.3c8.84-5.36,17.75-10.61,26.65-15.87,6.36-3.76,12.7-7.54,19.13-11.15,5.37-3,10.84-5.84,16.31-8.67,4.68-2.42,9.58-4.71,14.39-6.85,4.54-2,9-3.88,13.67-5.59,5.24-1.91,10.47-3.75,16-5.27.68-.18,1.62-.38,1.93,0a2.57,2.57,0,0,1,0,2.23c-1.87,3.85-4.18,7.51-5.69,11.49-1.06,2.8-.9,5.88-.52,8.78.82,6.27,7.62,9.56,14,8.54,4-.64,9-3.5,13.8-6.58,1.26-.81.79,1.51.7,2.73-.58,5.36-.69,10.76-1.31,16.11-.24,2-2.79,17.08-3.77,22.09a102.41,102.41,0,0,1-3.52,12.33c-.41,1.31-1.95,6.5-1.4,6.93s7.43-7.83,9.94-10.64c3.23-3.61,6.52-7.18,9.88-10.67,2.5-2.6,4.48-5,7.19-7.42,5-4.38,13.13-8,20.29-5,2.93,1.22,5.43,3.48,7.91,5.86a23.68,23.68,0,0,1,5.89,8.5c1.77,3.88,3.19,9.32,5.58,15,2.61,6.17,7.77,23.34,8.48,26.09q1.91,7.46,3.85,14.9c1.1,4.26,2.32,8.49,3.29,12.77,1.06,4.73,2.06,9.33,3.11,14.06,1.29,5.75,2.64,11.56,3.49,17.38.95,6.62,1.88,14.14,2.41,20.53.22,2.54.57,8.63,1.4,8.73s1.63-6.62,1.9-8.12c.68-3.76,1.24-9.35,1.79-16.29.58-7.42,1.63-14.8,2.08-22.21s.16-14.79.59-22.16c.54-9.26,4.8-39.26,5.49-43.42,1.39-8.29,2.4-16.23,5.49-23.9a68.21,68.21,0,0,1,3-6.21c2.32-4.37,7.32-11.7,14-13.55,4.92-1.35,8.49-2.23,13.58-2.09a15.62,15.62,0,0,1,12.2,6.28c1.65,2.39,3.09,4.94,4.82,7.27,3.5,4.71,7.72,8.31,13.92,9.05a6.17,6.17,0,0,1,3.86,2.27c3.28,4.58,6.31,9.36,9.37,14.1q3.84,5.93,7.53,11.94c2.53,4.11,4.91,8.32,7.5,12.39,3.81,6,13.86,22.16,15.43,21.46,1-.46-.26-5-.85-7.41q-1.78-7.28-3.66-14.52c-1.62-6.19-3.66-12.29-4.9-18.55-2.22-11.21-4.27-22.48-5.8-33.8-1.13-8.34-1.48-16.78.63-25.14,1.68-6.65,8.32-11.5,15.26-9.37a56.1,56.1,0,0,1,15.64,8c4.47,3.12,8.72,6.54,13,9.88,3.87,3,7.83,5.92,11.5,9.15,4.3,3.78,8.41,7.78,12.47,11.82,5.05,5,10.15,10.05,14.9,15.38,7.31,8.2,14.19,17.46,22.11,25.08,4.79,4.6,15,13.86,15.68,13.44s-3.34-6.29-5.11-9c-2.19-3.33-4.41-6.72-6.55-10.09-3.16-5-5.1-7-7.49-10.6-1.56-2.35-6.21-9.47-7.64-11.77-3.38-5.46-5.54-9-9.48-14.92-3.34-5-6.06-10.68-9.24-15.85-1.57-2.55-3.09-5.14-4.72-7.66-3.51-5.43-7.07-10.83-10.61-16.24-1-1.53-.22-1.54,1.28-2.36,4.79-2.61,5.78-9.12,3.07-14-3.8-6.79-9.51-11.74-15.34-16.55-5-4.11-10.27-7.84-15.44-11.71-1.46-1.09-2.58-2.64-1.67-4.2.56-1,2.43-1.52,3.75-1.59,8.75-.5,19,1,25.89,2.55,7.42,1.64,14.42,4.47,21.67,6.75,5.74,1.81,11.4,3.82,17,6,3.67,1.41,7.46,3.05,11.06,4.64,5.13,2.25,10.19,4.38,15.38,6.49s10.62,4,15.93,6c4.55,1.73,15.21,5.84,16.11,4.93.57-.58-7.53-7-11.16-9.46-6.64-4.47-10.5-7.65-15-11.1-3.39-2.57-10.79-8.3-14.2-10.91-4.22-3.22-8.21-6.27-12.28-9.68-4.94-4.14-10.23-8.3-15-12.63a58.22,58.22,0,0,1-9.47-11.41c-1.78-3.05,8.51-1.49,12.18-3,3.14-1.27,5.53-3.31,6.1-6.49,1-5.45.86-9.12-3.52-13.38a2.29,2.29,0,0,1-.37-2.54c1.72-2.29,6.47-4.59,8-5.17a45.17,45.17,0,0,1,12.12-2.56c8.18-.63,16.34-1,24.52-1.79,4.15-.41,8.57-.75,12.68-1.16,6.65-.68,13.05-1.31,19.71-1.42,17.37-.3,32.47-.1,46.38-.36,1.17,0,2.78-.48,2.78-1C720.43,285.85,714.44,284.17,710.09,283.2ZM564.33,211.8c8.73-3.55,16.47-2.8,19.29-.58,3.21,2.53,4.38,5.32,3.51,7.58-2.13,5.63-6.3,9.57-11.14,12.8a80.7,80.7,0,0,1-10.43,6.1,120.43,120.43,0,0,1-13.85,5.48c-5.53,1.82-11.18,3.24-16.8,4.77-3.84,1.05-5.76,0-7.1-3.73-.53-1.46-1.25-2.84-1.86-4.27-1.82-4.19-1-5.93,2.79-8.16,6.85-4,13.36-8.68,20.25-12.65A123.34,123.34,0,0,1,564.33,211.8Zm-33.71,73.75c0,2.74.35,4.34-2.57,6.27-1.93,1.27-3.62,5.52-4.62,8.05a17.8,17.8,0,0,0-1.39,5c-.14,1.32-.19,2.78,1.09,3.84.68.55.33,1.82-.13,2.82a137.05,137.05,0,0,1-6.87,13.24,122.2,122.2,0,0,1-8,11.08,3,3,0,0,1-2.61.92c-3.57-1.15-4.89-.74-7.83,2.18a96.6,96.6,0,0,1-7.24,6.62c-1.57,1.33-2.56,3.88-1.72,5,2.45,3.25,4.1,3.75-.7,7.73a90.75,90.75,0,0,1-9,7.07,104.51,104.51,0,0,1-17.41,8.72c-.55.23-1.8-.54-2.28-1.06-2.25-2.41-4.43-4.08-7.31-3-4.35,1.59-8.64,3.32-12.89,5.15-2.61,1.13-2.62,3.43-2.11,6.14.15.76-1.19,2.07-1.7,2.17-10.3,2.16-20.18,5.39-30.83,6.36-.82.08-4.41.3-4.47-.54a4.47,4.47,0,0,0-3.55-4.15c-4.24-.75-8.59-.87-12.88-1.34-3.27-.35-5.18.78-6,5.25-.18,1-10.29-1.6-13.52-2.66-8.28-2.72-12.83-5-20.78-8.45-6.45-2.8-12.17-6.76-18-10.54a52.19,52.19,0,0,1-9.05-8.35,97.91,97.91,0,0,1-13.68-20c-.34-.66-.8-3.29-.1-2.47,2.25,2.65,4.76,6.21,7.12,9.33,1.32,1.75,5.18,6.28,5.71,6.91a56.46,56.46,0,0,0,14.17,11.76c4,2.41,8.73,5.34,12.87,7.57a58.63,58.63,0,0,0,14.8,5.72,127.29,127.29,0,0,0,22.56,3.34,187.08,187.08,0,0,0,28-.29,150.6,150.6,0,0,0,16.88-3.6c7.85-2.23,15.29-5.77,22.88-8.79,4.21-1.67,8.39-3.42,12.48-5.36,2.87-1.35,5.61-3,8.33-4.61a118.16,118.16,0,0,0,23.06-17.78c4.27-4.24,7.88-9.18,11.61-13.94,3.59-4.59,7.11-9.25,10.38-14.08a57.82,57.82,0,0,0,4.51-7.79,106.68,106.68,0,0,0,5.75-14.06,86,86,0,0,0,3.52-20.12,72.36,72.36,0,0,0-2.42-20.6c-.51-1.78-1.44-4.33-2.14-6.06a117.7,117.7,0,0,0-7.07-11.84c-3.87-5.86-7.69-11.58-13.15-15.95-.74-.59-4.25-2.88-2.3-2.67,7.51.8,19.68,19.63,22.52,25.43a73.89,73.89,0,0,1,4.94,12.44c.9,3.23,2.1,6.33,2.49,9.81C530.78,267.63,530.68,280.5,530.62,285.55Zm2.42,8.79c.74.15,2.24.48,1.86,1.68-1,3.2-1.54,6.59-2.82,9.69-.41,1-2.22,1.75-3.6,2-2.83.46-3.57-1.25-2.67-3.53a87.16,87.16,0,0,1,4.27-9.32C530.38,294.27,532.09,294.15,533,294.34Zm-24,52.85a105.07,105.07,0,0,1-8.15,7.5,3.42,3.42,0,0,1-3.35.53c-3.76-2.32-7.11-6-4.25-8.78,2.44-2.39,5.76-6.51,9-7,2.43-.35,4.18,1.75,5.95,2.79C510.9,343.81,511.11,345,509,347.19Zm-52,31.55c-2.83,2.92-7.53,3.88-11,5.52-.84.39-2.46.61-2.9.14-1.33-1.44-3.2-4.24-2.69-6.09.31-1.11,11-5.18,13-4.58C455.2,374.26,457.66,378.06,457,378.74Zm-65.58,74.67c-1.12,2.5-6.61,4.62-8.17,4.71-2.27.13-5.95-.15-6.7-2.69-1.13-3.79-1.21-7.84-1.35-11.78a147.51,147.51,0,0,1,.19-17.72,80.35,80.35,0,0,1,2-12.15c.67-2.66,4.14-14.38,7.75-16.29,3-1.59,6.43-.41,6.94,2.49,1.69,9.69,3.18,19.29,3.11,29C395.12,437.94,395,445.42,391.42,453.41ZM382.22,393c-.71-.07-1.84-1-1.87-1.64,0-.84.93-2.89,1.56-3.07a22.14,22.14,0,0,1,6.35-.45,39.64,39.64,0,0,1,7.82.9,1.83,1.83,0,0,1,1.52,2.15,3,3,0,0,1-2,2.18A115.18,115.18,0,0,1,382.22,393ZM328.47,228.8c5-2.31,15.25-4.17,24.34-3.1,6,.7,10,3.81,14.1,7.35.65.56,1.3,1.1,2,1.67a1.2,1.2,0,0,0,1.85-1.44c-.37-.67-6.35-8.79-18.26-11.13A4.42,4.42,0,0,1,349,219c-1.58-6.48,4.65-16.26,6.8-19.91,2-3.48,4.83-7.07,8.39-9.11a11.62,11.62,0,0,1,6.34-1.56c6.86.73,13,3.32,19.15,5.82,6.45,2.63,11.89,6.95,14.67,13.68,1.92,4.68.9,9.59.5,14.41-.21,2.56-.66,5.11-.74,7.67a.41.41,0,0,0,0,.19,1.4,1.4,0,0,0,2.69-.09c.19-.74.38-1.48.53-2.23a28.08,28.08,0,0,1,9.06-15.31c4.92-4,9-6.08,14.62-9.16,3.48-1.91,13-4.75,16.93-5.26a96.48,96.48,0,0,1,16.88-1c5.17.06,5.19.76,6.31,5.83,1.38,6.27,1.61,15-.15,20.93-1.51,5.06-7,5.57-11.12,6.37-7.51,1.47-12.55,2-19,6.58-3.12,2.23-8,6.93-5.3,7.06,1.75.09,2.67-.82,4.09-1.28,3.49-1.13,6.92-2.59,10.49-3.32,6.34-1.31,12.65.17,18.75,1.59,3.43.79,13,6,14.22,9.21,4.48,11.81,5,21.52,2.07,32.43a37.9,37.9,0,0,1-2.6,6.49c-3.79,7.12-8.57,16-17.11,14.14-6.88-1.46-8.81-4.4-15.21-7.77C446,293.1,439.36,290,435,288.22c-3.59-1.49-13.44-5.84-12.58-3.38.52,1.47,14.08,9.09,18.52,12.52,4,3.06,9.56,8.47,10.75,14.22a45.11,45.11,0,0,1,.43,13.72,10.41,10.41,0,0,1-3.85,6.5c-3.75,2.8-8.05,4.9-12.21,7.1a113.48,113.48,0,0,1-15.36,6.5c-6.24,2.22-12.55,3.89-19,.52-5.31-2.76-8.68-7-12.08-11.56s-4.13-9.61-5-15.68c-.47-3.23-.48-6.52-.88-10a1,1,0,0,0-1.9-.33,3.61,3.61,0,0,0-.38,1.07c-1.06,6.49-1.07,13.3-3.09,19.46-1.87,5.69-3.8,11.8-9.62,15.58-5.31,3.45-11.22,5.3-16.91,7.71-6.39,2.7-6.67,2.6-9.22-4.06-1.68-4.37-3.47-8.83-4.81-13.27a70.07,70.07,0,0,1-2.33-15.29c-.23-4.09.29-6.2,1.9-10.53.68-1.82,2.11-6.47,4.15-9.59a80.73,80.73,0,0,1,8.86-11.18,40.43,40.43,0,0,1,6.18-5.66c1.62-1.2,5.08-2.08,6.41-3.3,2.32-2.14-3.95-1.07-5.67-.3-7.54,3.37-18.37,13.79-25.63,32.7-.28.73-1,1.8-1.68,1.92-4.17.71-7.55,1.34-11.73,1.95-1.63.24-5.27,1.25-5.33-.15-.18-4.11-.74-9.67-.18-14.26.71-5.71,2.12-11.16,3.33-16.77a33.85,33.85,0,0,1,11.87-19.33c3.67-3,8.11-4.51,12.62-5.44,5-1,10.21-1.48,15.86-2.56a.78.78,0,0,0,.12-1.5,4.24,4.24,0,0,0-1.84-.36c-4.61.44-12.51.85-17.08,1.65-6.14,1.08-8.93,2.75-15.08,3.77a16.86,16.86,0,0,1-13-3.6,63.56,63.56,0,0,1-5.22-5.52c-1.25-1.34-1.41-1.78.1-3.93s4.24-4.33,5.53-5.68A60.1,60.1,0,0,1,328.47,228.8Zm-15.23.55a92,92,0,0,1-6.72-10.08c-1.07-1.78-2.83-5.05-3.82-6.86a11.59,11.59,0,0,1-.66-9.89c1.43-3.81,5-4.13,7.67-4.14,6.67,0,13,8.53,14.74,11,2.38,3.23,7.17,10.77,7.32,11.17,1.07,2.9.71,3.29-1.76,4.55-4,2.05-8,4.2-11.94,6.3C316.41,232.25,314.24,230.64,313.24,229.35ZM396,192c.55-8.72.5-17.55,2.09-26.15.61-3.35,1.38-8.79,6.84-13.06,3.38-2.65,10.5-1.43,13.39,2.16,5.36,6.64,5.45,9.18,5.2,19.92-.68,6.53-1.65,15.85-2.61,25.16-.25,2.39-.47,3.48-3.75,4.87-5.56,2.37-5.41,2-9.64-1.88-3-2.72-5.87-4.92-9-7.54C397.53,194.72,395.88,193.21,396,192Zm-81.37,72.51c1.05-.44,2.36,5.83,2,7-1,3.1-3.31,7.91-4.13,11.09-4.41,17.06-4.6,18.5-4.06,27.83.08,1.29.23,5,.39,6.32.36,3.06,1.93,4.2,5,3.71,4.69-.75,9.38-1.52,14.08-2.24,3.45-.53,3.46-.07,3.84,3.37a68,68,0,0,0,2.76,13.65c2,6.22,4.58,12.27,7.19,18.27,1.56,3.58,4.45,4.39,8,2.88,2.24-.95,4.51-1.86,6.74-2.8,7.88-3.31,11.58-2.17,17.51-1.61.64.06,18.52,1.31,27.19.84a93.27,93.27,0,0,0,21.12-3.8,112.32,112.32,0,0,0,16.06-6.7,91.67,91.67,0,0,0,18.24-11.54c8.11-6.63,14.77-14.26,21.12-22.71,5.7-7.6,10.8-19.24,11.76-24.21a86.77,86.77,0,0,0,1.71-11.42,76.33,76.33,0,0,0,0-10.7,53,53,0,0,0-4.68-18.89c-2.36-4.95-4.69-9-7.44-13.72-1.14-2-3.92-4.83-3.8-7.11.26-5.31.85-9.43-.3-16.09-.28-1.6,1.81-1.86,3.64-1.27a44.72,44.72,0,0,1,14.11,6.77c4.93,3.38,8.73,7.67,13,11.85s10.64,14.87,13.77,20.48c4.85,8.69,5.29,18.25,4.32,27.87a92.87,92.87,0,0,1-2.87,17.05,86.25,86.25,0,0,1-7.15,16.73A141.85,141.85,0,0,1,504.84,319c-1.71,2.41-4,5.68-5.87,7.92a150.82,150.82,0,0,1-12.55,13.5,134.64,134.64,0,0,1-18.39,14,98.21,98.21,0,0,1-13,7c-6.49,3-13,6-19.73,8.46A140,140,0,0,1,415.6,376,102.71,102.71,0,0,1,394.11,378a271,271,0,0,1-31.25-2.65,96.12,96.12,0,0,1-21.46-7.58,105.72,105.72,0,0,1-11.92-6.87,66.75,66.75,0,0,1-13-11.1,133.55,133.55,0,0,1-12.35-15.71,42.58,42.58,0,0,1-5.07-9.8,52.58,52.58,0,0,1-2.57-13.65,57.4,57.4,0,0,1,1.37-16.44,78.21,78.21,0,0,1,6.46-16.25C306.12,274.36,310.88,266.11,314.59,264.55ZM515,174.85c.95-3.19,1.37-4,4.59-4h3c6.36.06,12.42-1.4,18.48-3.21,7.67-2.3,14.76-5.84,21.77-9.57,3.82-2,7.31-4.69,11-6.94,4.53-2.75,9.12-5.55,13.69-8.24,2.67-1.58,6.75-3.91,7.17-3.39.27.35-2.33,3.57-2.67,4-3.8,5-8.09,9.63-12,14.51-2.58,3.22-5.28,6.17-7.72,9.48-3.62,4.92-6.93,10.07-10.35,15.13-3.23,4.77-6.78,9.35-9.52,14.38-2,3.62-3.65,7.69-3.08,12.08.65,4.92-.63,5-3.45,6.68-6.94,4.07-13.65,8.55-20.48,12.82a5.94,5.94,0,0,1-3,1.26,4.73,4.73,0,0,1-3-1.45c-5.61-6.58-9.6-11.17-15.68-16.39a19.94,19.94,0,0,0-2.61-2c-2-1.17-1.4-2.83-.56-4.69,1.61-3.53,4.81-8.33,8-14.24C512.13,184.71,513,181.34,515,174.85Zm-7.16-16.26c2.67.79,4.21,4.69,4,8.32a58.35,58.35,0,0,1-5.69,21.41A151.49,151.49,0,0,1,498,202.86c-1.61,2.68-3.79,3.21-6.83,2.37-4-1.11-12.72-3.11-12.64-4.66.22-4.25,4.55-20.65,6.06-24,2.16-4.73,3.75-9.41,6.53-13.57,1.57-2.34,4-4.15,8.06-5.63C501.71,156.47,505.19,157.83,507.79,158.59Zm-270,98.17c-7.47-4-15.06-7.76-22.6-11.61-5.82-3-11.67-5.88-17.44-8.94-2.9-1.54-9.39-5.06-9.17-5.44.35-.61,2.12-.3,3.21-.23,8.88.56,16.79,2.84,25.57,4.2,8.43,1.31,16.88,2.4,25.31,3.67,5.87.89,11.71,1.94,17.57,2.86,6.82,1.07,13.12-.45,17.87-5.41,3.05-3.19,3-7.78,2-12-1.26-5.39-4.25-9.84-7.63-14.19-6.08-7.82-13.37-14.4-20.71-20.9S236.52,176,228.88,169.58c-5.73-4.79-11.48-9.57-17.17-14.4a107.56,107.56,0,0,1-9.53-8.69c-.52-.56-2.42-2.48-2-3.08s3.81.71,5.23,1.23c7.24,2.64,14.48,5.3,21.65,8.12,6.14,2.42,12.14,5.18,18.29,7.55,4.9,1.88,9.78,3.57,14.72,5.37,3.57,1.3,7.19,2.72,10.75,4,4.26,1.6,8.6,3,12.91,4.48,3.44,1.17,6.88,2.58,10.36,3.6,5.29,1.56,16,4.83,23.14,2.09,4.24-1.64,5.69-3.23,8.28-6,3.81-4.06,4.78-9,5.22-15a138.43,138.43,0,0,0-.18-20.16c-.73-10-2.09-20-3.12-30-.24-2.33-.8-7.93-.18-8.12,1.07-.33,4,5.49,5.4,8,1.61,2.85,3.21,5.9,5,8.65,2.8,4.37,5.35,9,8.22,13.3,1.62,2.43,3.21,4.88,4.67,7.41,2.2,3.8,4.36,7.24,6.62,11a36.46,36.46,0,0,0,9,10.08c5.2,4,11,3.56,15.68-1s7.74-9.88,10.87-15.42c2.91-5.16,4.63-10.6,7.15-16,3.52-7.53,6.33-14.79,9.46-22.32,2.92-7,4.86-14.14,7.36-21.33,1.14-3.28,2.3-7.16,3.44-10.44,1.34-3.86,2.37-6.46,3.78-10.29.89-2.42,1.79-5.9,2.74-8.3.64-1.6,2.23-5.89,2.88-5.88S430,50.93,430,52c.59,11.43,1.3,22.92,2.32,34.3a110.14,110.14,0,0,0,2.67,16c.57,2.43,1.5,5.08,2.29,7.47,1.27,3.82,2.68,7.6,4.26,11.3a56.51,56.51,0,0,0,5.15,10c2.08,3,6.76,8,12.7,5.71,6.76-2.56,13.3-5.29,19.28-9.31,4.55-3,10.41-7,14.63-10.44a51.11,51.11,0,0,0,9.87-10.51q6.39-9.33,13-18.48c4.33-6,8.79-11.89,13.18-17.84,2-2.69,3.88-5.44,5.91-8.1C541.38,54.17,547,48,552.56,39.65c1-1.52,3.15-4.88,4.22-6.46,2-2.9,4.18-6.92,4.88-6.36s-4.74,10.31-5.84,12.82c-.61,1.37-1.26,2.72-1.91,4.08-1.27,2.66-2.47,5.37-3.85,8-2.35,4.45-4.9,8.8-7.22,13.26-1.71,3.28-7,14.07-8.09,16.12-1.17,2.26-2.3,4.55-3.37,6.86-3.42,7.4-7.16,14.61-10.58,22-1.66,3.57-3.2,7.25-4.7,10.88-3.38,8.2-6.58,16.48-9.86,24.73-.82,2.07-1.54,4.18-2.51,6.18a2.86,2.86,0,0,1-1.92,1.32c-8.83,1.31-13.83,7.17-17.08,14.75a118,118,0,0,0-6.7,19.54c-1,4.28-1.93,7.89-2.66,11.86a1.22,1.22,0,0,1-1.41,1c-.58-.12-1-.65-1.57-2.57s-.34-2.9-1.61-3c-.76-.06-9.61-.55-12.47-.56a66.45,66.45,0,0,0-21.9,3.47c-3.23,1.12-5.84,2.19-9.07,3.28-1,.35-2.89.59-3-.38-.42-5.78,1.7-14.84,2-22.52.32-9.46,2.34-15.49-5.07-25.3-4.1-5.45-10.69-7.43-15.82-4.45-4.28,2.47-7.57,6-8.87,10.82a86,86,0,0,0-2.43,13.23c-.59,5.79-1,11.23-1.26,17.05-.11,2.26-.78,2.72-2.95,1.7a61.44,61.44,0,0,0-17.33-5.26c-3.55-.53-7.19-.64-10.21,1.18-2.19,1.33-6.82,6.65-8.31,8.83-4,5.8-5.68,8.28-8.54,14.69-3.82,8.59-4.33,11.08-5.89,11.23a4.25,4.25,0,0,1-3.31-1.7c-1.94-3-4-5.68-6.05-8.55-2.44-3.41-8.95-11.78-11.27-13.4-5.11-3.54-11.59-3.63-15.48-1.93-4.73,2.08-5.93,9.74-5.32,12.91.72,3.7,2.76,6.88,4.7,10.11,2.55,4.25,5.38,8.33,8,12.52,1.08,1.73,2,3.23-.36,5.14-3.72,3.06-7,6.65-10.45,10a3.3,3.3,0,0,0,0,4.76c3.05,2.94,6,6,8.88,9.1,1.75,1.86.08,3.37-1.07,4.34s-3.1,1.61-4,1.12c-5.61-3.09-11.73-4.5-17.75-6.41-9.58-3-19.43-4.22-29.31-5-4-.3-8.31.66-12.34,1.75C242.13,257.17,240.15,258,237.77,256.76Zm41.66,5.79c2.85.6,6.13,1.51,12.7,3.34,5.71,1.59,8.34,3.56,10.45,5.73a1.45,1.45,0,0,1,0,2.05c-2,3.32-4.13,6.61-6.38,9.78a3.75,3.75,0,0,1-2.66,1.53c-5.58-.25-11.17-.65-16.73-1.19-3.08-.3-6.12-.27-9.19-.68a57.59,57.59,0,0,1-17.07-5.38c-3.9-1.86-8-3.64-9.87-8-.92-2.22-1-3.93-.42-5.27,1.09-2.53,4.13-3.43,7.06-4.25a26.78,26.78,0,0,1,8.46-.95A148.88,148.88,0,0,1,279.43,262.55Zm-36.6,60.17c-5.17-1.73-10.58-3.46-15.9-4.75a70.48,70.48,0,0,0-8.68-1.45c-6.44-.72-18.16-1-18.16-1.95,0-1.1,7-2.5,16-5.63s17.79-6.57,26.63-10a106.58,106.58,0,0,0,12-5.42,57.51,57.51,0,0,0,9.4-6.33c2-1.69,4-1.22,6.15-1q11.5,1.06,23,2.21c.26,0,.51.12,1.34.31-.55,4.49-1.26,8.81-1.54,13.16-.29,4.57-.22,9.17-.21,13.75,0,2.3.25,4.59.32,6.88.05,1.41-.26,2.14-1.83,2.14a121.88,121.88,0,0,0-15.91.75c-5.89.74-11.33,2-17.13,3.22a7.28,7.28,0,0,1-5.26-1.1A63.15,63.15,0,0,0,242.83,322.72Zm8.73,32.3c-3.85.15-7.59.42-11.33-1.79-2.48-1.46-4.07-3.42-4-5.9.18-4.46,3.36-6.16,6.18-8.17a54.67,54.67,0,0,1,18.36-8.34,113.47,113.47,0,0,1,30-3.74c3,0,4.22,1.39,5.16,3.81.77,2,1.84,3.88,2.58,5.89a2.16,2.16,0,0,1-.74,1.9,72.6,72.6,0,0,1-15.88,7.45c-2.11.75-4.16,1.66-6.28,2.38-4.25,1.45-8.48,3-12.82,4.18C259.22,353.66,255.26,354.87,251.56,355ZM288,390c-3.17,1.53-11.61,4.18-15,5.32-2.75.93-5.53,1.76-8.21,2.85-4.79,1.94-9,3.75-13.75,5.76-3.46,1.46-7.22,3.21-10.53,5-6.87,3.63-13.94,7.3-20.72,11.09-5.91,3.3-11.62,6.76-17.48,10.14-5.49,3.17-11.15,6.22-16.56,9.53-3.85,2.36-13.4,8.54-14.06,7.36-.23-.41,2.28-3.35,3.7-4.75,6.8-6.72,13.73-13.3,20.54-20,4.26-4.2,8.33-8.6,12.58-12.81,6.75-6.71,13.62-13,20-20.05,3.79-4.16,9.24-10.13,13.24-14.34,5.51-5.79,9.7-11.05,14.71-17.18.36-.44,5.06-1.74,5.64-1.94,9.93-3.49,16.31-5.31,25.94-9.55a62.6,62.6,0,0,1,8.7-3.28c2.57-.78,4-1.12,5.61,1.54,3.14,5.13,6.72,10,10.3,14.83,1.64,2.21,5.66,6.47,4.72,7.24-6.59,5.45-13,10.16-19.69,15.64C295.94,383.83,290.31,388.92,288,390Zm1.61,32.69c-3.31-.59-8.06-4.82-7.61-9.71.42-4.64,3.34-10.52,5.79-14.46a50.36,50.36,0,0,1,11.83-13.79c4.46-3.43,8.72-7.1,13.1-10.62a37.43,37.43,0,0,1,5.9-4.29,5.41,5.41,0,0,1,4.35-.28,79.19,79.19,0,0,1,7.72,5.16c1.34.9,1.87,2,1,3.51-1.12,2-2.18,4.13-3.41,6.1-3.59,5.74-7.19,11.48-10.92,17.14-2.54,3.84-5.1,7.7-8,11.26C304.75,418.51,294.88,423.64,289.65,422.71Zm156.79,7.88c-4.87-2.07-9-2.16-13.44-1.78A29.64,29.64,0,0,0,418,434a28.39,28.39,0,0,0-7,7.87,79.37,79.37,0,0,0-6.27,12.33A51.83,51.83,0,0,0,402,464.53c-1.92,10.38-3.84,20.78-5.32,31.23-1.05,7.36-1.53,14.82-2,22.25-.31,5.13-.29,10.18-.4,15.32-.17,7.69-.93,15.39-1.64,23.08-.28,3-.81,17.09-1.8,17.09-.57,0-.93-3.55-1.11-5.94a200.57,200.57,0,0,0-3-20.25c-.83-4.61-1.91-9.37-3.08-13.93-.7-2.74-1.25-5.35-1.84-8.12-1.2-5.6-2.41-10.46-3.77-15.78s-3-11-4.72-16.27c-1.07-3.38-1.92-6.82-3-10.18-1.75-5.27-3.44-10.47-5.47-15.74-3.09-8-3.88-13.16-9.73-18.59-4.41-4.09-8.81-7.41-15.41-7.62a20.41,20.41,0,0,0-8.95,2.1c-6,2.81-10.09,6.82-14.21,12-2.81,3.53-11.71,13.34-13.19,13.07-.61-.11,1.88-7.66,3-14.5s2.66-14.18,3.36-21.19c.45-4.57.64-9.28,1.19-13.84.21-1.81,1.64-4.77,3.77-7.48,1.08-1.37,2.13-2.89,3.13-4.39,2.71-4.05,5.48-8.08,8.08-12.2s5.07-8.28,7.48-12.49c1.37-2.39,3.49-2.84,6.21-1.64,5.28,2.34,10.6,4.67,16.06,6.53,6.09,2.08,12.37,3.61,18.56,5.44.74.22,2.65.58,2.45,1.35a3.18,3.18,0,0,0,2.08,2.84c.59.24-.25,2.3-.71,3.57-1.84,5-3.32,10.05-4.82,15.17-1.43,4.86-1.61,9.74-1.72,14.78-.1,4-.38,8.38-.07,12.53.21,2.84,1.1,12.65,2,15.31,1.24,3.59,4.35,4.38,7.67,4.31,9.22-.2,13.83-4.2,15.75-12.74a105.35,105.35,0,0,0,1.84-32.31c-.47-4.81-2.39-16.52-2.58-17.6-.6-3.53,1.64-4.49,5.13-5.19,7.7-1.54,15.32-3.48,23-5a106.07,106.07,0,0,1,15.59-2.32c3.95-.19,5,1.78,5.3,5.78.6,9,1.35,18,2.16,26.91.34,3.77,2.18,11.71,1.54,11.63A7.42,7.42,0,0,1,446.44,430.59Zm24.4,20.26c-5.69-.11-9.39-3.61-11.76-7.2a37.54,37.54,0,0,1-5.6-13.21c-1.41-6.5-2.51-13.82-3.44-20.49-.52-3.67-1.06-9-1.41-13.38-.42-5.16-.63-8.22,2.91-10.27,2.52-1.47,3.48-1.17,4.85,1.38,2.36,4.39,5.35,8.57,7.72,13,2.74,5.07,5.36,9.37,8.29,15a72.07,72.07,0,0,1,5.4,14c1.65,5.89,2.15,11.41-.94,17.23C475.79,448.88,472.05,451.12,470.84,450.85Zm88.71-40.76c3.84,6,6.7,10.45,10,15.7,3.13,5,5.65,9.14,8.64,14.35,1.7,3,3.82,6.52,5.65,9.4,5.32,8.4,13.75,20.16,19.09,28.55.51.8,5.33,7.74,4.89,7.93-.8.34-4.72-3.44-5.69-4.4-3.87-3.83-10.47-11.15-14-15.33-5.39-6.42-11-12.55-16.64-18.73a121.73,121.73,0,0,0-10-9.22c-2.38-2.09-4.57-4.25-6.93-6.19-3.46-2.87-13.45-11.06-15.12-12.3-3.75-2.77-7.53-5.7-11.38-8.34-1-.66-6.2-5.63-17.19-7.81-4.05-.8-9.71,2.83-11.27,5a30.15,30.15,0,0,0-5.45,17.72,144.27,144.27,0,0,0,1.93,23.32c1.05,6.94,4.24,21.94,5.45,27.05.9,3.78,7.12,26.62,6.35,26.94-1.14.48-4.23-4.44-4.65-5.1-2-3.06-3.74-6.26-5.74-9.31-3.19-4.89-9.89-15.66-10.26-16.26-3.58-5.77-7.52-11.76-11.22-17.44-1.07-1.63-.68-2.41.56-3.69,6.09-6.27,7.5-14.41,4.94-22.9a99.83,99.83,0,0,0-7.45-17.32c-2.77-5.29-6-10.05-8.92-15.25-1.89-3.31-4.12-7-5.76-10.41-.71-1.48,0-2.52,1-3.88,3.19-4.37,9.91-6.63,14.25-9.33,5.09-3.15,8-4.88,12.28-8.86,1.33-1.24,2.77-2.37,4.09-3.62,1.81-1.72,3.5-3.05,6.21-1.38.82.5,2.61.15,3.56-.44,1.71-1.06,2.79-1.25,3.82.54a73.36,73.36,0,0,0,4.62,6.85c3.28,4.45,7.18,10.06,10.55,14.42a71.89,71.89,0,0,0,16.41,15.92,38.63,38.63,0,0,0,17.23,7,5,5,0,0,1,2.86,1.87C557.18,406.65,558.57,408.57,559.55,410.09Zm-17.46-40.31a135.89,135.89,0,0,1,10.81,9.69c2.83,2.8,5.88,5.63,7.77,9,1.2,2.16,1.65,4.61-.36,7.13-1.53,1.92-4.21,3.65-6.26,3.84-5.89.54-9.5-1.72-13.92-4.85-3.76-2.67-12.31-9.18-18.14-16.74-3.77-4.88-7.38-10.12-11.23-14.94-1.47-1.84-2.74-3.83-4-5.79-1.13-1.7-.06-2.79,1-4,3-3.4,3.4-3.36,7.18-.94,4.63,2.95,9.56,5.43,14.17,8.39C533.56,363.43,537.93,366.49,542.09,369.78Zm46.43-30.44c5.91,5.27,12.15,10.19,18.34,15.15,4.49,3.59,9.12,7,13.7,10.5,4.13,3.13,8.29,6.22,12.4,9.36,3,2.31,13.09,9.78,12.75,10.38s-8.89-3.05-11.72-4.21c-8.76-3.56-17.48-7.21-26.21-10.82-4.85-2-9.62-4.22-14.55-6C585.55,361,577.77,358.53,570,356a113.06,113.06,0,0,0-33.79-5.6c-4.25-.08-7.72,1-10.26,4.84-3.54-2.28-6.93-4.57-10.45-6.65-1.58-.94-1.41-1.55-.47-2.95a2.66,2.66,0,0,0-.93-3.72c-1.15-.65-3.84-1.81-3-3.2,1.59-2.53,3.07-4,4.68-6.64,3.3-5.46,6.55-11,9.58-16.58,2.52-4.68,8.08-6.32,13.06-4.28,5.47,2.24,11.25,3.75,16.87,5.63q7,2.34,13.89,4.81a20.11,20.11,0,0,1,9.37,7A78.71,78.71,0,0,0,588.52,339.34Zm3.07-21.13c-2.18,1.26-7.19,2.13-9,2.11-6.1-.09-11.78-2.7-17.75-4-2.32-.5-26.43-7.81-27.55-8.64-2.18-1.6-.33-5.13.33-7.16.6-1.86,1.64-3.38,4.15-3.36,4.71,0,9.42,0,14.14,0v0c3.32,0,6.66-.15,10,0,4.2.24,10.59-.14,14.52,1.09a22.19,22.19,0,0,1,12,8.06C595,309.6,594.59,316.47,591.59,318.21Zm81.57-32.53a211.73,211.73,0,0,0-23.53,1.5c-12.51,1.64-25.76,1.81-38.26,2.94a53.15,53.15,0,0,0-16.82,4.61,14.47,14.47,0,0,1-8.9.51,62.56,62.56,0,0,0-12.28-1.43c-10.71-.36-19.57-.55-30.27-.91-2.43-.08-4.87-1.29-7.19-2.25-.56-.23-.87-1.51-.95-2.35-.74-7.27-1.37-14.56-2.08-21.85-.39-4.1-.74-8.22-1.34-12.29a3.09,3.09,0,0,1,2.41-3.29c4.7-1.17,8.77-2.49,13.44-3.76,3-.79,5.49-1.88,9.17-2.47a18.86,18.86,0,0,1,10.74,1.23c3.49,1.4,6.94,2.92,10.44,4.31,4.48,1.79,8.93,3.65,13.48,5.23,3.94,1.38,8,2.36,12,3.59l11.3,3.45c3.27,1,6.51,1.94,9.82,2.78,3.56.9,7,1.9,10.55,2.64,7.07,1.46,14.63,3.32,21.67,4.89,6.22,1.38,11.78,2.67,18,4.15,6.41,1.54,13.23,3.09,19.65,4.61,1.66.39,12.47,2.9,12.47,3.77S682.29,285.5,673.16,285.68Z" transform="translate(-159.45 -11.99)"/><path d="M382.38,280.11c2.91,2.13,6.21,2.66,9.84,2.56a17.53,17.53,0,0,0,10.49-3.58,25.06,25.06,0,0,0,7-6.84c3-4.49,6.62-9.67,3.33-15.42-2.64-4.61-5.1-8-10.75-8.73a68.7,68.7,0,0,0-12.64,1c-7.28,2-11.48,7.86-12.62,9.69-.94,1.52-1.35,4.59-1.51,6.35a10.37,10.37,0,0,0,.06,2.49C376.49,273.56,378.25,277.08,382.38,280.11Zm3.12-25a21.09,21.09,0,0,1,11.22-4.47c7.14-.82,12.16,2.47,14.22,9.47.93,3.15-.83,5.85-2.51,8.05a47.2,47.2,0,0,1-8.1,7.94h0a11.57,11.57,0,0,1-15.9-1.28,12.59,12.59,0,0,1-3-7.14C381,263,381.55,258.37,385.5,255.12Z" transform="translate(-159.45 -11.99)"/><path d="M370.15,288.59a26,26,0,0,0,11.37,6.27c5.46,1.45,14.22,2.09,26.64-6.06a47.32,47.32,0,0,0,11-10.29,38.73,38.73,0,0,0,5.08-8.9c1.06-2.37,2.24-5.85,1.65-6a2.36,2.36,0,0,0-2,.86c-3.26,4.64-6.05,9.64-9.62,14a38.8,38.8,0,0,1-13.4,10.69,27.3,27.3,0,0,1-18.95,2.38c-4.43-1.11-12.16-6.52-13.26-11.17-.83-3.49-.49-9.68,0-13.31.38-2.81,1.8-5,1.38-5.57l-.44-.57a1,1,0,0,0-1.64.14c-2.05,4.3-2.72,12.45-2.54,17A16.28,16.28,0,0,0,370.15,288.59Z" transform="translate(-159.45 -11.99)"/><path d="M384.05,370.79c.44-.69.13-1.81.41-2.65a10.39,10.39,0,0,1,1.66-3.63,11.29,11.29,0,0,1,4-3.11,9.25,9.25,0,0,1,5.38-.45c.91.2,1.2,1.47,1.43,2.51.33,1.52,0,3.2.5,4.65.24.75.71,2.42,1.58,2.47,1.21.06,1.4-1.2,1.57-2,.06-.27.92-6.22,1.78-7.32,1.47-1.87,6-3.6,8.66-2.28,1.36.66,1.52,2.69,1.85,4.15s.52,3.17.82,4.79c.14.75.48,2,1.09,2.06s1.34-1,1.54-1.71c.94-3.29-.67-10.28-3.48-12.31-3.08-2.22-6.29-1.24-9.23.34-2.76,1.47-3.56,2.95-6.75.58-1-.73-5.13-.23-6.27.41-2.26,1.27-3.54,2.48-6.07,1.61-.74-.26-2.67.63-2.75,1.19a97.25,97.25,0,0,0-.8,10.1,1.61,1.61,0,0,0,.26.83,1.35,1.35,0,0,0,1.69.54A2.5,2.5,0,0,0,384.05,370.79Z" transform="translate(-159.45 -11.99)"/><path d="M489.54,320.62c3.36-1.88,5.49-4.46,9.78-1,.76.62,1.46.38,2.25-.35,1.29-1.2-1.12-2.79-1.47-3-1.5-1-1.2-2.09-.65-3.35s1.11-2.49,1.66-3.73c1.34-3,.76-5.22-1.86-7.14s-6.55-2.29-8.43-.19a118.47,118.47,0,0,0-8.14,10.28c-1.29,1.83-.31,5.81,1.39,7.65A4.13,4.13,0,0,0,489.54,320.62Zm4.68-16.15a1.75,1.75,0,0,1,1.49.36c1,.78,2.05,1.09,2,1.89,0,1.26-1.43,2.1-2.27,3.08a1.33,1.33,0,0,1-2,0,6.77,6.77,0,0,1-1.56-2.57C491.55,305.73,492.48,304.87,494.22,304.47Zm-8.53,9.26c.28-1,2.13-2.59,2.7-2.38a18.06,18.06,0,0,1,4.14,2.66.93.93,0,0,1-.2,1.6l-3.88,1.6a1.94,1.94,0,0,1-2.61-1.31A4.32,4.32,0,0,1,485.69,313.73Z" transform="translate(-159.45 -11.99)"/><path d="M421.94,369.72c.52.08,1.62-.89,1.74-1.53.35-1.88.5-3.89.78-5.8.1-.7.44-1.74.93-1.81.67-.1,1.44.63,2.2.93s1.85,1,3.21,0c2.37-1.71,3.27-3.5,4.75-6s2.47-2.88,4.95-1a51,51,0,0,0,7,4.49,1.11,1.11,0,0,0,.75,0,1.65,1.65,0,0,0,.94-2.63,1.9,1.9,0,0,0-.21-.19c-3.22-2.4-6.62-4.56-9.81-7s-4.14-2.39-6,1.44c-.89,1.8-1.61,3.7-2.64,5.42a2.4,2.4,0,0,1-2.13.87,49.46,49.46,0,0,1-5.11-2.7.87.87,0,0,0-1.29.62c-.82,4.8-2.13,9-2.13,13.25C419.86,369.57,421.15,369.59,421.94,369.72Z" transform="translate(-159.45 -11.99)"/><path d="M458.57,354.8a11.31,11.31,0,0,0,4.92-3.59,9.59,9.59,0,0,0,1-11.22,14.47,14.47,0,0,0-3.11-3.81,5.43,5.43,0,0,0-4.4-1c-5.69,1.67-9,10.6-6.21,15.7C452.48,354,455.58,355.57,458.57,354.8Zm-3.15-13.23a3.54,3.54,0,0,1,4.44-1.77,5,5,0,0,1,2.89,4.33c.24,2.47-2,6.49-4.07,7.3a2.74,2.74,0,0,1-4-1.93A11.27,11.27,0,0,1,455.42,341.57Z" transform="translate(-159.45 -11.99)"/><path d="M499.25,276.11c4.19,2.16,8.37,4.34,12.59,6.42a10.47,10.47,0,0,0,3.6,1.12,2,2,0,0,0,1.74-1.36c.28-.93-.41-1.33-.88-1.59-1.58-.88-3.33-1.46-4.88-2.37-.71-.41-1.57-1.36-1.55-2,.05-1.69.75-5.08.67-5.1a10.94,10.94,0,0,0-.06-3.29c-.55-1.69-1.05-3.86-2.33-4.77-3.83-2.74-10.9.39-11.44,5.13a11.63,11.63,0,0,0,1.46,7.12A3.14,3.14,0,0,0,499.25,276.11Zm2.46-9.41c.84-.83,3-1.36,3.92-.83,4.2,2.4,1.83,7.31.92,8.5-.35.46-3.25.43-3.9.26C499.89,273.88,499.69,268.7,501.71,266.7Z" transform="translate(-159.45 -11.99)"/><path d="M500.92,251.66c3.47,1.05,6.91,2.2,10.41,3.11a40.12,40.12,0,0,0,6.45,1,2.54,2.54,0,0,0,2.08-.92,2.21,2.21,0,0,0-.59-2.07l0,0c-1.9-1.57-4.42-1.75-6.81-2.34-1.28-.33-1.66-.6-2.59-2.5a29.28,29.28,0,0,0-1.77-3c-1.88-2.86-3.06-4.33-1.11-6.55,0,0,1.38-1.89,1.41-1.93a1.21,1.21,0,0,0-1.33-1.87,2.09,2.09,0,0,0-.4.19c-4.25,2.73-6.27,7.21-8.35,11.51C496.89,249.14,497.89,250.73,500.92,251.66Zm2.08-6.6a2.81,2.81,0,0,1,2.21.67c1,.85,2.2,1.63,2.54,2.85a1.28,1.28,0,0,1-1.66,1.47,15.85,15.85,0,0,1-2.76-1.09,3.58,3.58,0,0,1-1.56-2.15A2.17,2.17,0,0,1,503,245.06Z" transform="translate(-159.45 -11.99)"/><path d="M354.75,367.7a8.75,8.75,0,0,0,1.9-1c1.25-.65,2.57-1.89,3.76-1.79,4.23.38,8.14,1.3,12.53,2,.54.08.83.66.91,1.12s-.13,4.35,1.89,4.07c.67-.09,1-1,1-2.77a34.1,34.1,0,0,0-1.93-9.76,6.76,6.76,0,0,0-8.75-4.44c-5.59,1.95-8.8,6.61-12.55,10.67a1.28,1.28,0,0,0,0,1.23A1.61,1.61,0,0,0,354.75,367.7ZM370.7,359c1.17.62,2.78,2.1,2.06,3.89a.82.82,0,0,1-.89.49l-9.13-1.57a.45.45,0,0,1-.21-.78C365.09,358.86,367.63,357.31,370.7,359Z" transform="translate(-159.45 -11.99)"/><path d="M506,299.65c.64.41,2.17.5,2.57.07,2.18-2.37,4.2-4.88,5.1-8a1.6,1.6,0,0,0-2.58-1.67,6.26,6.26,0,0,0-1.31,2.51c-.77,2.18-1.94,3.36-4,3a1.36,1.36,0,0,1-1.1-1.66c.64-2.28,3.35-3.93,3-6.48a1.06,1.06,0,0,0-1-.91c-2.44-.06-2.38,2.41-3.48,3.62-.7.77-1.8,1.95-2.47,1.8a3.44,3.44,0,0,1-2.05-2.4,12.45,12.45,0,0,1,.63-4.21,7.16,7.16,0,0,1,.61-1.4c.63-1.29-.06-2.12-1.47-1.84-1.22.24-1.35.83-1.79,1.8-1.15,2.52-2.45,7.43-.87,8.67C499,295.1,502.51,297.4,506,299.65Z" transform="translate(-159.45 -11.99)"/><path d="M474.71,337.78c3.08,1.63,6.76.28,9.06-2.42a3.09,3.09,0,0,0,.51-1,1.24,1.24,0,0,0-1.41-1.58,11.78,11.78,0,0,0-1.45.95c-1.54,1-3.32,1.84-4.76,1.28a7.94,7.94,0,0,1-3.92-3.15c-1-1.36.11-5.83,1.67-6.23.88-.22,1.54.5,2.39.15a1,1,0,0,0,.45-1.39l0-.05a3.21,3.21,0,0,0-4.84-.75,7.78,7.78,0,0,0-2.42,3C468.1,331.93,469.8,335.19,474.71,337.78Z" transform="translate(-159.45 -11.99)"/></g></svg>