<svg id="Слой_1" data-name="Слой 1" xmlns="http://www.w3.org/2000/svg" viewBox="0 0 1242.78 1251.43"><defs><style>.cls-1{fill:#0d297d;}</style></defs><path class="cls-1" d="M-288.47,388.06c7.22,7.55,14.69,14.79,20.2,23.9,21.21,35.05,14.93,82.33-21.65,106.74-26.83,17.92-55.57,18.58-84.49,4.81-23.13-11-38.83-29.13-46.13-53.6-14.36-48.14,16.62-93.47,63.65-100.18a86.55,86.55,0,0,1,37.86,3c.95.28,1.82.75,2.94-.51-2.85-2.75-6.39-4.45-9.71-6.36a354.54,354.54,0,0,1-93.32-78,355.33,355.33,0,0,1-75.07-144.4c-8.22-32.13-12.21-64.75-10.79-98a50,50,0,0,1,1.19-7.87c.52-2.5,1.32-5.22,4.47-5.17,3.4.07,4.73,2.7,5.32,5.68a148.75,148.75,0,0,0,6.26,21c15.68,44.19,36.85,85.49,64.45,123.48,27.43,37.77,59.93,70.44,98.41,96.82Q-216.74,353.56-85.74,344C-29.15,340,24,323.76,74.39,297.93c11.83-6.06,22.94-13.51,35.31-18.54,2.23-.9,4.67-3.07,6.76-.5s-.1,4.72-1.53,6.72c-14.91,20.89-33.24,38.5-53,54.6A322.17,322.17,0,0,1-8,383.4a336.57,336.57,0,0,1-149.87,30.44,342.89,342.89,0,0,1-100.47-17.58c-7.88-2.63-15.6-5.73-23.39-8.63-1.54-.58-2.95-1.59-4.73-1.35-1.37-1.15-3.38-2.8-4.54-1.29C-292.27,386.68-289.95,387.48-288.47,388.06Z" transform="translate(569.33 577.44)"/><path class="cls-1" d="M-38.47-434.13c9.33-4.69,18.62-9.46,28-14.06a344.22,344.22,0,0,1,78-27.17c60.52-13.35,120.6-11.67,180.2,5.59a352.88,352.88,0,0,1,99.81,46.95c3.7,2.5,7.36,5.14,10.16,8.76,1.44,1.85,2.54,3.73,1,5.84-1.68,2.34-4.11,2.57-6.72,1.62a245.05,245.05,0,0,0-30.19-8.61c-56.09-12.51-112.57-16.11-169.67-8.07C103.68-416.45,57.83-401.7,15-377.93A363.21,363.21,0,0,0-104.39-271.66C-130.82-235-150-194.81-162.61-151.46A454.81,454.81,0,0,0-179.86-49.77c-.33,5.8-1.39,11.56-2,17.34-.22,2-.79,3.67-3,3.94s-3.3-1.3-4.06-3a151.34,151.34,0,0,1-7.71-22.64,334,334,0,0,1-10.47-108.4,334.37,334.37,0,0,1,22.82-100.37,337,337,0,0,1,25.21-50.91,348,348,0,0,1,69.88-82.8c7.92-6.88,16.34-13.1,24.56-19.59.89-.7,3-1,1.89-2.77-.78-1.28-2.14-.26-3.14.13a92.85,92.85,0,0,1-24.73,5.52c-41.27,3.75-80.87-28.58-85.41-69.95-5.2-47.43,26-87.25,73.29-93.51,41-5.43,81.81,25.25,88,66.13,4.49,29.41-4.36,54.34-25,75.41-.51.43-1.07.91-.4,1.57S-38.93-433.7-38.47-434.13Z" transform="translate(569.33 577.44)"/><path class="cls-1" d="M511.33,184.69c.62,14.18,1.31,28.42.8,42.75a361.17,361.17,0,0,1-18,101.42q-31.72,95.59-108,161.42a334.27,334.27,0,0,1-85.35,53.87,29.41,29.41,0,0,1-8.13,2.35c-2.41.29-4.87.59-5.93-2.22s.1-4.86,2.31-6.54c10.51-8,19.43-17.69,28.37-27.32,34.1-36.74,62.31-77.54,83.19-123.18,18.77-41,30.79-83.92,35.17-129a364.08,364.08,0,0,0-18.12-155c-18.73-54.72-49-102.36-89-144a455,455,0,0,0-74.16-61.93c-4.12-2.78-8-6-11.8-9.18-1.46-1.21-3.3-2.61-2.26-5s3.15-2,5.16-1.81c10.37.88,20.22,4.07,30.06,7.12A327.3,327.3,0,0,1,398.52-42.09,336.08,336.08,0,0,1,485.89,81.66a338.91,338.91,0,0,1,22.28,80.15,23.74,23.74,0,0,0,.67,2.89c.08.27.38.47.59.72,1.41-50.54,43.13-81.84,82.76-81,43.11.93,77.36,32.85,81,76.26,3.36,40.16-25.43,78-64.45,85.93C567.59,255,523.43,231.07,511.33,184.69Z" transform="translate(569.33 577.44)"/><path class="cls-1" d="M141.38,532.93c-4.53.68-7.4,3-10.49,4.64-73.18,39-150.72,52.28-232.59,39a339.21,339.21,0,0,1-111.25-38.48c-5.1-2.82-10.31-5.4-14.51-9.56-1.72-1.7-3.5-3.51-2.1-6s3.81-2.93,6.51-2.31c51.5,11.92,103.54,13.68,155.9,7.67a412.14,412.14,0,0,0,89.34-20.54,383.14,383.14,0,0,0,83.69-40.75A366,366,0,0,0,217.41,352.66,388.77,388.77,0,0,0,266.28,233.6a444.84,444.84,0,0,0,11-113.06c-.15-5.65.25-11.32.52-17,.09-1.92-.09-4.24,2.51-4.86,2.76-.65,3.81,1.51,4.89,3.36,5,8.53,8.15,17.86,11.28,27.15a331.19,331.19,0,0,1,16.27,132.92,332.59,332.59,0,0,1-28.86,111.53,344.36,344.36,0,0,1-78.14,109.79c-9.66,9.13-20.18,17.33-30.2,26.08-1.48,1.3-4.48,2.53-3.17,5,1.22,2.26,3.67,0,5.31-.37,46.17-11,91.88,21.12,97.51,68.64,4.59,38.63-16.83,73.5-53.29,86.75-30.95,11.25-67.12.75-88.16-25.6A81.27,81.27,0,0,1,129.46,548,100.31,100.31,0,0,1,141.38,532.93Zm30.2-17.5c0-.07.62-.53.6-1a.87.87,0,0,0-1.28-.81c-.46.23-1.11.74-1.11,1.13S170.29,515.91,171.58,515.43Z" transform="translate(569.33 577.44)"/><path class="cls-1" d="M412-279.4c-22.89-17.14-35.16-38.83-36.4-66.13a78.56,78.56,0,0,1,17-53.09c23.72-30.46,64-39,97.38-22.13,38.87,19.68,53.64,64.77,39.74,102.07-13.23,35.49-53.17,62.62-101.12,48.34a43.85,43.85,0,0,0,4.66,3.56c30.24,17.42,56.87,39.34,80.61,64.82a355.73,355.73,0,0,1,66.47,101.3C600.18-55,610.36-7.29,610,42.57a36.16,36.16,0,0,1-1.48,9.86C608,54.31,607,55.74,604.83,56c-2.31.26-3.77-1-4.85-2.84a10,10,0,0,1-.89-2.32C590.51,19.78,576.68-9,561.15-37c-23.6-42.5-53.14-80.42-89.43-112.86-29.43-26.31-61.82-48.21-98-64.39-88.71-39.68-179.26-42.7-271.53-14.24C64.89-217,30.37-199.57-3-179.59c-2.85,1.7-5.88,3.12-8.87,4.57-1.64.8-3.52,1.72-5,0s-.84-3.5.13-5.13A113.58,113.58,0,0,1-6.13-195.22c31.67-38.05,69.62-68.11,114.46-89.19q79.86-37.53,168-31.61c38.22,2.5,75,11.41,110.44,25.7,7.36,3,14.76,5.84,21.47,10.19C408.85-279.73,409.78-279.81,412-279.4Z" transform="translate(569.33 577.44)"/><path class="cls-1" d="M-411.79-111.88a364.6,364.6,0,0,1,17.92-111.93A360.16,360.16,0,0,1-340-327.9,352.57,352.57,0,0,1-235.6-421.63c7-4.13,13.86-8.67,21.66-11.19,3.19-1,7.34-3.84,9.81.65,2.28,4.16-1.45,6.53-4.19,9-8.55,7.7-15.88,16.54-23.25,25.32a471.4,471.4,0,0,0-67.92,106.53c-18.51,40.3-30.72,82.41-35.65,126.6a402,402,0,0,0-1.78,63.12c1.4,30.55,7.23,60.25,16.31,89.33,14.4,46.13,37.4,87.68,67.85,125.12,31.6,38.84,69.25,70.7,112,96.67,5.67,3.45,11,7.46,16.54,11.15,1.9,1.26,3.74,2.5,2.69,5.15-.94,2.37-3,2.06-5.07,1.93-16.08-1-31.49-5.29-46.75-10a328.62,328.62,0,0,1-123.36-69.33c-42.91-38.12-73.9-84.36-93.71-138.06A345.32,345.32,0,0,1-411.79-111.88Z" transform="translate(569.33 577.44)"/><path class="cls-1" d="M-412.14-85.35c-1.24,48.41-38.55,81.92-80.75,81.23-44.38-.73-76.94-36.44-76.44-79.76.53-45.22,37.51-81.78,80.88-80.54C-444-163.16-412.83-128-412.14-85.35Z" transform="translate(569.33 577.44)"/></svg>