<svg id="Слой_1" data-name="Слой 1" xmlns="http://www.w3.org/2000/svg" viewBox="0 0 514.6 756.18"><defs><style>.cls-1{fill:#2346f4;}.cls-2{fill:#ea3d64;}</style></defs><path class="cls-1" d="M42.27,378.67a191.39,191.39,0,0,0-53.52,13.59,17.61,17.61,0,0,1-10.52,1.29C-33.4,391.41-45,392-56.15,396.36c-3.22,1.25-5.23.56-7.55-1.52-40.13-36.06-63.1-80.46-65.4-134.82-2.39-56.63,18.58-103.76,58.72-142.94C-42,89.38-8.44,71,30,61.24c25.66-6.53,48-18.42,64.26-40.15C110.6-.83,119.15-25.64,122-52.64c.46-4.4,1-8.78,1.65-13.76,3.78,3.43,5.84,7.55,8.25,11.35C153-21.69,166.69,14.43,170.71,53.84c4.41,43.35-3.92,84.41-23.84,123.15-2.67,5.19-2.6,5.33,3.28,6.12,34.47,4.64,63.7-15.72,71.1-49.52.28-1.28.66-2.53,1.16-4.39a267.19,267.19,0,0,1,15.3,36.15C248.15,195.69,256.22,226.57,255,259,253.36,305,236.73,344.93,206,379c-13.56,15-13.67,14.47-33.95,15.1-18.3.56-36-.62-53.07-8.16-7.86-3.47-16.64-4.49-26.16-6.2,33.84-7.19,59.29-25.84,79.53-51.8s29.4-56.13,29.5-90c-8.21,4.91-15.87,9.08-24.08,12.18C140.87,264,96.15,253.31,69.47,224.3c-2.48-2.7-1.42-4.06.21-6.08A181.19,181.19,0,0,0,106.46,139,191.88,191.88,0,0,0,109.8,92c-1.07-.6-1.46.09-1.82.58C89.67,117.05,65.32,132,36.34,141.44,8.14,150.61-17.1,165.61-35,190.27c-32,44.16-27.17,107.54,11,149.17,17.3,18.89,38.29,31.68,63.21,37.89A25.36,25.36,0,0,1,42.27,378.67Z" transform="translate(197.51 252.86)"/><path class="cls-1" d="M33.76-158.31a145.65,145.65,0,0,1-1.38,26.72c-1.25,8.44-2.05,17-5,26,7.47-2.37,11.29-7.36,15-13.74C47-95.69,43.87-74.12,34.46-53.29c-.84,1.85-3.25,4.06-1.64,5.67,2,2,5,.79,7.49-.34,1.18-.53,2.31-1.17,4-2.07,1.11,9-.26,17.28-2.07,25.5A79.49,79.49,0,0,1,29.88,4.11C27.82,7.05,28.65,8,31.61,8.75s5.65,1.93,8.52,2.76,3.49,2.36,2.28,5.16A97.6,97.6,0,0,1,29.45,39c-2.92,3.67-7.52,3.28-11.14,3.87Q-56.27,55.11-101,115.79c-2.66,3.62-5.23,4.68-9.46,4.24-35.49-3.74-61.18-23-81.62-50.91-2.2-3-.3-4.48,1.2-6.37q33.44-42.3,70.26-81.68A1286.68,1286.68,0,0,1,29.13-155.62C30.4-156.61,31.46-158,33.76-158.31Z" transform="translate(197.51 252.86)"/><path class="cls-1" d="M34-167.78A1094.88,1094.88,0,0,0-197.51,49.44V-134.87c3.25,3.19,4.39,1.71,5.87-1.48,10.08-21.85,26.46-37.08,48.93-45.84,3.62-1.42,5.84-1.49,6.47,3a34.89,34.89,0,0,0,1.7,5.74c.56,1.73,1.2,3.44,1.95,5.59a94.2,94.2,0,0,1,27.73-12.29,89.9,89.9,0,0,1,30.1-2.33c-2.08,3.94-4.7,7.6-2.63,12.57,11.19-5,22.89-7.92,35.07-10s23.72.83,37.17,1.47c-6.89,4.05-12.13,7.68-14.67,14.67C-2.19-167,15.15-169.34,34-167.78Z" transform="translate(197.51 252.86)"/><path class="cls-2" d="M82.08,143.84c-7.72,29.41-21.35,54.42-39.87,76.84-1.9,2.3-2.42,4-1.22,6.54,14.51,30.55,37,51.62,70.89,58.49A93.81,93.81,0,0,0,162,282.12c1.36-.47,2.93-1.68,4.17-.45,1,1-.11,2.49-.45,3.7-9.49,33.71-30.36,57.87-62.88,70.4-33.17,12.78-65.12,8.65-93.58-13.41C-13.1,325-27.19,302.09-32.28,274.17c-6.69-36.6,9.58-78.89,46-98.59a59.13,59.13,0,0,1,16.8-6.08c18.1-3.47,33.72-11.75,48-23.09C79.4,145.69,80.37,145.07,82.08,143.84Z" transform="translate(197.51 252.86)"/><path class="cls-1" d="M277.32,161.63c-5.51-7.9-9.48-15.48-13.55-23a516.08,516.08,0,0,1-54.48-156.1,550.14,550.14,0,0,1-7.67-68.84c-.21-4.08.91-5.84,5-6.65,11.09-2.2,21-7.25,29.93-14.07,2.72-2.07,3.92-1.58,5.5,1.35A359.51,359.51,0,0,1,281,9.51a404.75,404.75,0,0,1,3.83,97.35A470,470,0,0,1,277.32,161.63Z" transform="translate(197.51 252.86)"/><path class="cls-1" d="M306.81-130.41v5.93q0,249.89.12,499.78c0,4.82-1.13,6-6,6-24.49-.27-49-.13-73.47-.13-1.61,0-3.23,0-5.64,0,4.26-5.16,8.09-9.65,11.72-14.29,1.55-2,3.52-1.55,5.45-1.55,15.16,0,30.33-.23,45.48.1,5,.11,6.58-1,6.57-6.37q-.25-197.66-.13-395.33c0-27.48.11-55-.12-82.46,0-4,1.13-6,4.88-7.17C299.3-127,302.72-128.73,306.81-130.41Z" transform="translate(197.51 252.86)"/><path class="cls-1" d="M.16-243.72c10.92,0,21.39,0,31.87,0,1.52,0,2.39.85,3.33,1.85,28,29.76,62.52,48,101.81,57.75,4.44,1.1,4.49,2.2,2.82,6.06-7.73,17.9-6.84,35.63,2.09,52.94.83,1.61,1.77,3.17,2.69,4.81-14.13,1.68-63.55-19.81-86.19-37.29C29.82-179.83,9-207.35.16-243.72Z" transform="translate(197.51 252.86)"/><path class="cls-1" d="M-182.76,97.22c4.4,5.6,8.55,10.32,13.93,13.67,1.77,1.11,1.89,2.47,1.89,4.19q0,60.72,0,121.43,0,62.48-.18,124.93c0,3.08.84,3.94,3.92,3.91,17.82-.14,35.64,0,53.47-.12,2.7,0,4.61.59,6.3,2.91,3.08,4.26,6.56,8.24,9.9,12.37-1.1,1.08-2.32.62-3.39.62-27.15,0-54.3,0-81.45.08-3.13,0-4.65-.25-4.65-4.13q.19-138.67.11-277.36C-182.95,99.23-182.88,98.73-182.76,97.22Z" transform="translate(197.51 252.86)"/><path class="cls-1" d="M-181.78,449.63c0-13.82.13-27.65-.1-41.47-.06-3.82,1.13-4.74,4.82-4.72q37.22.24,74.45,0c3.43,0,4.55.88,4.54,4.45q-.21,42,0,83.94c0,3.62-1.14,4.56-4.54,4.36a102.77,102.77,0,0,0-13.48,0c-3.84.29-5-.78-5-4.82.23-21.15,0-42.31.21-63.46,0-4.08-.87-5.43-5.14-5.27-9.65.34-19.32.24-29,0-3.3-.07-4.19,1-4.17,4.21.13,21.32-.09,42.64.19,64,.06,4.62-1.39,5.72-5.61,5.35a71.53,71.53,0,0,0-12,0c-4,.34-5.42-.82-5.33-5.11C-181.6,477.28-181.78,463.45-181.78,449.63Z" transform="translate(197.51 252.86)"/><path class="cls-1" d="M115.13,450.42c0,13.83-.15,27.66.1,41.49.07,3.66-1,4.5-4.44,4.29a108.69,108.69,0,0,0-14,0c-3.64.26-4.41-1.12-4.39-4.49.13-21.33,0-42.66.15-64,0-3.9-1-5.21-5-5.05-7.48.3-15,.25-22.48,0-3.33-.11-4.12,1-4.17,4.2-.21,13.64.58,27.4-2,40.86C54.62,489.87,43,495,26.71,496.22c-3.07.23-4.26-.72-3.89-3.84a32.5,32.5,0,0,0,0-6c-.34-4.75-.37-8.26,5.87-10.25,6.76-2.16,7.87-9.58,8.22-15.91.82-14.79,1.2-29.61,1.52-44.42.27-12.28.12-12.28,12.3-12.28,20,0,40,.08,60-.07,3.5,0,4.51,1,4.47,4.48C115,422.09,115.13,436.25,115.13,450.42Z" transform="translate(197.51 252.86)"/><path class="cls-1" d="M228,496.13c-7.61,0-14.43-.07-21.25,0-2.18,0-3.52-.64-3.89-2.84-2-11.61-9.35-13.95-19.94-12.76-8.22.93-16.63.27-25,.17-2.7,0-4.07.78-5.06,3.53-4.29,11.92-4.41,11.88-17.23,11.87-11.39,0-11.4,0-6.85-10.42,11.43-26.16,22.94-52.3,34.27-78.51,1.28-3,2.95-3.94,6-3.74a55.83,55.83,0,0,0,11,0c5.73-.79,8.39,1.56,10.63,6.81,11.53,27,23.52,53.88,35.33,80.79C226.73,492.52,227.23,494.08,228,496.13ZM161.9,462.94h28.5l-14.14-34.75Z" transform="translate(197.51 252.86)"/><path class="cls-1" d="M237.33,449.83c0-13.82.11-27.64-.07-41.46,0-3.52.62-5.09,4.61-4.92,15.44.66,31-1.29,46.34,1.44,19,3.39,29.14,15.14,28.88,32.93-.25,17.15-11.62,29.28-30,32.3-7.46,1.23-15,.91-22.42.8-3.38-.05-4.72.77-4.54,4.39.28,5.81,0,11.65.12,17.48.06,2.6-.8,3.5-3.43,3.4-5-.18-10-.26-15,0-3.45.19-4.66-.84-4.52-4.41.26-7,.07-14,.07-21S237.34,456.83,237.33,449.83Zm22.83-13.47c0,4.6,0,8.43,0,12.26,0,1.79,0,3.38,2.51,3.32,6.81-.17,13.67.63,20.4-.91s10.82-6.4,11.07-12.95c.29-7.56-2.66-11.63-10-14.13-3.26-1.12-6.57-.93-9.88-.92-4.48,0-10.38-1.49-13.06.76C258.08,426.43,260.67,432.55,260.16,436.36Z" transform="translate(197.51 252.86)"/><path class="cls-1" d="M50.67-252.74h5q122.67,0,245.35-.12c4.9,0,6.12,1.25,5.92,6-.41,9.47-.39,19,0,28.47.19,4.66-1.56,7.57-5.36,9.69-3.29,1.83-6.43,4-10.62,4.6,0-9.4-.22-18.56.11-27.7.14-4.13-1-5.21-5.17-5.2q-108.67.21-217.36.1C58.21-236.87,52.62-241.75,50.67-252.74Z" transform="translate(197.51 252.86)"/><path class="cls-2" d="M-34.86,409.9c0,.33,0,.67,0,1,0,2.83.62,5.91-.3,8.42-1.17,3.23-5,1.49-7.52,2.3-14.17,4.47-23.53,17.65-22.21,31.76S-52,479.49-38.23,481c14.57,1.61,28-7.3,32.5-21.65a14,14,0,0,0,.94-5.85c-.77-5.29,1.61-6.88,6.49-6.94a73.26,73.26,0,0,0,11.39-1.34c3.29-.55,4.29.71,4.49,3.9,1.26,20.41-12.49,42.3-31.81,49.84-20.45,8-39.44,5.1-55.68-9.71-16-14.55-20.39-33-14.77-53.7,5.37-19.8,24.75-35.12,45.26-36.65,3.42-.25,5,.25,4.5,4a58.18,58.18,0,0,0,0,7Z" transform="translate(197.51 252.86)"/><path class="cls-1" d="M195.8-190.28a10.71,10.71,0,0,0,0,1.5c.79,5.45-.53,8.1-7,9.33-13.71,2.61-22.83,17-21,30.84,1.72,13.08,15,24.17,28.6,23.79a27.89,27.89,0,0,0,27.11-26.72c.21-4.43,1.83-5.2,5.56-5.26a78,78,0,0,0,11.4-1.17c2.82-.46,3.35.69,3.51,3.19,1.57,25.05-19.47,48.5-44.27,50.11-28.25,1.84-51.06-19.55-52-45.71-.9-24.49,14.33-44.12,38.28-49.59,9.59-2.19,9.79-2,9.78,7.69Z" transform="translate(197.51 252.86)"/><path class="cls-1" d="M-183-169.35c0-27.22,0-53.69-.06-80.17,0-2.75,1-3.26,3.46-3.26q78.45.09,156.88,0c2.26,0,3.46.33,3.93,3,.77,4.41,3.35,8.21,6.05,12.86H-19c-47.63,0-95.26.05-142.89-.1-4.07,0-5.35.87-5.27,5.13.31,16,.11,32,.32,48,0,3.07-.9,4.75-3.57,6.26C-174.59-175.3-178.41-172.4-183-169.35Z" transform="translate(197.51 252.86)"/><path class="cls-1" d="M306.81-203.84c0,21,0,41.16,0,61.29,0,1.79-.31,3.06-2.18,4a224.32,224.32,0,0,1-54.42,18.85c-.28,0-.61-.19-1.18-.37,3.66-6.37,6.78-12.89,8.41-20.09a58.62,58.62,0,0,0-3.82-38.45c-1.73-3.75-.91-4.48,2.82-5.28A157.12,157.12,0,0,0,303.13-202C304.1-202.61,305.15-203,306.81-203.84Z" transform="translate(197.51 252.86)"/><path class="cls-1" d="M173.45,10.21A294.15,294.15,0,0,0,140-84.84c-1.7-3-2-5.09.53-7.77a72.42,72.42,0,0,0,9.87-13.74c1.1-1.87,1.82-3,4-1.17,8.87,7.32,19.9,10.21,30.25,14.47a4.48,4.48,0,0,0,2.46.2c3.16-.68,3.59.95,3.52,3.58a354.27,354.27,0,0,1-2.81,38.79C185.08-30.63,181.26-11,175,8.12,174.78,8.87,174.84,9.8,173.45,10.21Z" transform="translate(197.51 252.86)"/><path class="cls-2" d="M-4.12,441c-2.73.44-2.38-1.89-3.25-3.11-1.09-1.54-.92-2.77.66-3.71,5-3,10-5.89,15-8.8,1.33-.78,2.48-.72,3.2.94.91,2.12,2,4.19,2.89,6.3.44,1,.51,1.94-.79,2.38Z" transform="translate(197.51 252.86)"/><path class="cls-2" d="M-28.19,418.35c1.05-5.15,2.22-10.64,3.25-16.16.36-2,1.34-2.5,3.12-2s3.47,1,5.21,1.56c2.12.63,2.93,1.62,1.83,4-2.37,5.08-4.52,10.27-6.63,15.47-1,2.38-2.46,1.64-4,1S-29.36,421.52-28.19,418.35Z" transform="translate(197.51 252.86)"/><path class="cls-2" d="M-11.8,430.09c-2.09-.6-3.29-2-4.54-3.3s.3-2.1.88-2.94c3-4.35,6.17-8.6,9.15-13C-5,409-4.06,408.53-2,410c6.4,4.51,6.54,5.41.81,10.69q-4,3.7-8,7.35C-10.09,428.79-11,429.46-11.8,430.09Z" transform="translate(197.51 252.86)"/><path class="cls-2" d="M216.71-172c-2.46-.06-4.67-3.86-3.35-5.77,2.9-4.22,6-8.3,9-12.46.93-1.3,1.74-1.47,3.24-.58,6.22,3.65,6.43,5.28,1.05,10.09-2.59,2.31-5.06,4.75-7.63,7.08A21.82,21.82,0,0,1,216.71-172Z" transform="translate(197.51 252.86)"/><path class="cls-2" d="M240.9-170.17c.4,2.73-.78,3-1.92,3.32-4.58,1.46-9.19,2.84-13.7,4.5-2.22.82-3.28.35-4.19-1.81s-.81-3.52,1.59-4.71c3.4-1.68,6.5-4,9.88-5.7,1.63-.83,3.4-3.45,5.19-1.62S240.21-171.58,240.9-170.17Z" transform="translate(197.51 252.86)"/><path class="cls-2" d="M214.91-196c-1.3,2.95-2.58,5.82-3.85,8.7-1,2.28-2,4.56-2.95,6.86s-2.47,1.69-4.14,1.17-2.91-1.14-2.3-3.48a127.83,127.83,0,0,0,2.92-13.64c.46-3.13,1.48-4,4.46-2.68C211.05-198.17,213.73-198.59,214.91-196Z" transform="translate(197.51 252.86)"/></svg>